<?xml version="1.0" encoding="utf-8"?>
<!-- Generator: Adobe Illustrator 17.0.0, SVG Export Plug-In . SVG Version: 6.00 Build 0)  -->
<!DOCTYPE svg PUBLIC "-//W3C//DTD SVG 1.1//EN" "http://www.w3.org/Graphics/SVG/1.1/DTD/svg11.dtd">
<svg version="1.1" xmlns="http://www.w3.org/2000/svg" xmlns:xlink="http://www.w3.org/1999/xlink" x="0px" y="0px" width="750px"
	 height="500px" viewBox="0 0 750 500" enable-background="new 0 0 750 500" xml:space="preserve">
<pattern  width="10" height="119.5" patternUnits="userSpaceOnUse" id="New_Pattern" viewBox="0 -119.5 10 119.5" overflow="visible">
	<g>
		<polygon fill="none" points="0,-119.5 10,-119.5 10,0 0,0 		"/>
		<line fill="none" stroke="#FFFFFF" stroke-width="0.5" stroke-miterlimit="10" x1="9" y1="-119.5" x2="9" y2="0"/>
		<line fill="none" stroke="#FFFFFF" stroke-width="0.5" stroke-miterlimit="10" x1="7" y1="-119.5" x2="7" y2="0"/>
		<line fill="none" stroke="#FFFFFF" stroke-width="0.5" stroke-miterlimit="10" x1="5" y1="-119.5" x2="5" y2="0"/>
		<line fill="none" stroke="#FFFFFF" stroke-width="0.5" stroke-miterlimit="10" x1="3" y1="-119.5" x2="3" y2="0"/>
		<line fill="none" stroke="#FFFFFF" stroke-width="0.5" stroke-miterlimit="10" x1="1" y1="-119.5" x2="1" y2="0"/>
	</g>
</pattern>
<g id="BACKGROUND">
	<rect x="-92.886" y="-106.892" fill="#C6C7CC" width="926.954" height="719.964"/>
</g>
<g id="OBJECTS">
	<g>
		
			<image overflow="visible" width="3283" height="487" xlink:href="974CEA0D.png"  transform="matrix(0.24 0 0 0.24 -23.2584 434.1819)">
		</image>
	</g>
	
		<radialGradient id="SVGID_1_" cx="238.6673" cy="242.9989" r="281.0158" gradientTransform="matrix(1.2359 0 0 1.4399 -92.8849 -106.8917)" gradientUnits="userSpaceOnUse">
		<stop  offset="0" style="stop-color:#2E3957"/>
		<stop  offset="1" style="stop-color:#0E111A"/>
	</radialGradient>
	<path fill="url(#SVGID_1_)" d="M739.696,490.971c0,5.664-3.978,10.299-8.84,10.299H10.335c-4.864,0-8.84-4.635-8.84-10.299V15.212
		c0-5.664,3.976-10.299,8.84-10.299h720.521c4.862,0,8.84,4.635,8.84,10.299V490.971z"/>
	<path fill="#131621" d="M1.495,408.948v82.022c0,5.664,3.976,10.299,8.84,10.299h720.521c4.862,0,8.84-4.635,8.84-10.299v-82.022
		H1.495z"/>
	<g>
		
			<pattern  id="SVGID_2_" xlink:href="#New_Pattern" patternTransform="matrix(0.7071 0.7071 -0.7071 0.7071 -7697.8315 3391.3042)">
		</pattern>
		<ellipse opacity="0.5" fill="url(#SVGID_2_)" cx="312.965" cy="148.724" rx="53.697" ry="62.56"/>
		
			<pattern  id="SVGID_3_" xlink:href="#New_Pattern" patternTransform="matrix(0.7071 0.7071 -0.7071 0.7071 -7663.3477 3352.6382)">
		</pattern>
		<rect x="672.468" y="328.079" fill="url(#SVGID_3_)" width="67.228" height="80.869"/>
		
			<pattern  id="SVGID_4_" xlink:href="#New_Pattern" patternTransform="matrix(0.7071 0.7071 -0.7071 0.7071 -7676.6113 3353.0884)">
		</pattern>
		<rect x="1.495" y="52.8" fill="url(#SVGID_4_)" width="24.579" height="164.125"/>
		<line fill="none" stroke="#FFFFFF" stroke-width="0.5" stroke-miterlimit="10" x1="45.308" y1="109.39" x2="53.187" y2="109.39"/>
		
			<line fill="none" stroke="#FFFFFF" stroke-width="0.5" stroke-miterlimit="10" x1="392.396" y1="358.763" x2="400.275" y2="358.763"/>
		<g>
			
				<line fill="none" stroke="#FFFFFF" stroke-width="0.5" stroke-miterlimit="10" x1="713.721" y1="125.918" x2="721.6" y2="125.918"/>
			
				<line fill="none" stroke="#FFFFFF" stroke-width="0.5" stroke-miterlimit="10" x1="717.66" y1="121.328" x2="717.66" y2="130.508"/>
		</g>
		<g>
			
				<line fill="none" stroke="#FFFFFF" stroke-width="0.5" stroke-miterlimit="10" x1="713.721" y1="358.763" x2="721.6" y2="358.763"/>
			
				<line fill="none" stroke="#FFFFFF" stroke-width="0.5" stroke-miterlimit="10" x1="717.66" y1="354.174" x2="717.66" y2="363.353"/>
		</g>
		
			<line fill="none" stroke="#FFFFFF" stroke-width="0.5" stroke-miterlimit="10" x1="45.308" y1="353.586" x2="53.187" y2="353.586"/>
	</g>
</g>
</svg>
