<?xml version="1.0" encoding="utf-8"?>
<!-- Generator: Adobe Illustrator 17.0.0, SVG Export Plug-In . SVG Version: 6.00 Build 0)  -->
<!DOCTYPE svg PUBLIC "-//W3C//DTD SVG 1.1//EN" "http://www.w3.org/Graphics/SVG/1.1/DTD/svg11.dtd">
<svg version="1.1" id="Layer_1" xmlns="http://www.w3.org/2000/svg" xmlns:xlink="http://www.w3.org/1999/xlink" x="0px" y="0px"
	 width="500px" height="500px" viewBox="0 0 500 500" enable-background="new 0 0 500 500" xml:space="preserve">
<g>
	<path fill-rule="evenodd" clip-rule="evenodd" fill="#3C5B9A" d="M495.188,250c0,135.411-109.778,245.187-245.188,245.187
		C114.584,495.187,4.812,385.412,4.812,250C4.812,114.585,114.584,4.813,250,4.813C385.41,4.813,495.188,114.585,495.188,250z"/>
	<path fill-rule="evenodd" clip-rule="evenodd" fill="#FEFEFE" d="M211.578,323.998c0-22.946-0.089-45.892,0.082-68.835
		c0.032-3.868-1.062-5.078-4.931-4.92c-7.15,0.29-14.319-0.03-21.479,0.135c-2.898,0.073-3.967-0.73-3.935-3.801
		c0.144-14.316,0.13-28.64,0.015-42.959c-0.027-2.754,0.804-3.66,3.588-3.598c7.32,0.168,14.656-0.205,21.962,0.157
		c4.235,0.208,5.112-1.297,5.023-5.227c-0.256-10.896-0.256-21.808-0.016-32.705c0.291-13.308,3.863-25.734,11.791-36.555
		c10.031-13.704,24.294-19.969,40.748-20.703c16.899-0.751,33.84-0.334,50.759-0.516c2.359-0.027,3.063,0.816,3.053,3.11
		c-0.076,14.48-0.091,28.965,0.01,43.446c0.023,2.576-0.818,3.364-3.346,3.324c-8.138-0.127-16.276-0.065-24.409-0.043
		c-10.831,0.034-17.314,5.605-17.992,16.327c-0.544,8.595-0.147,17.242-0.347,25.862c-0.073,3.07,1.752,2.86,3.784,2.858
		c12.365-0.019,24.735,0.123,37.101-0.089c3.63-0.063,4.827,0.772,4.412,4.593c-1.557,14.388-2.893,28.803-4.126,43.226
		c-0.281,3.255-1.767,3.875-4.69,3.827c-9.756-0.151-19.521-0.104-29.284-0.042c-7.012,0.042-6.331-1.028-6.331,6.124
		c-0.033,44.912-0.094,89.827,0.099,134.739c0.02,4.744-1.192,5.921-5.885,5.837c-16.758-0.309-33.523-0.324-50.282,0.008
		c-4.722,0.094-5.499-1.509-5.462-5.721C211.669,369.237,211.578,346.62,211.578,323.998z"/>
</g>
</svg>
