<?xml version="1.0" standalone="no"?>
<!DOCTYPE svg PUBLIC "-//W3C//DTD SVG 20010904//EN"
 "http://www.w3.org/TR/2001/REC-SVG-20010904/DTD/svg10.dtd">
<svg version="1.0" xmlns="http://www.w3.org/2000/svg"
 width="222.000000pt" height="237.000000pt" viewBox="0 0 222.000000 237.000000"
 preserveAspectRatio="xMidYMid meet">
<metadata>
Created by potrace 1.16, written by Peter Selinger 2001-2019
</metadata>
<g transform="translate(0.000000,237.000000) scale(0.100000,-0.100000)"
fill="#000000" stroke="none">
<path d="M1102 2210 c-14 -36 -863 -1993 -869 -2003 -2 -4 75 -6 173 -5 l177
3 348 824 349 823 -76 177 c-96 222 -90 212 -102 181z"/>
<path d="M1202 1122 c-106 -257 -192 -473 -192 -480 0 -9 53 -12 229 -12 l228
0 89 -215 89 -215 174 0 c134 0 172 3 168 13 -17 43 -589 1372 -590 1374 -2 1
-89 -208 -195 -465z"/>
</g>
</svg>
