<?xml version="1.0" encoding="utf-8"?>
<!-- Generator: Adobe Illustrator 17.0.0, SVG Export Plug-In . SVG Version: 6.00 Build 0)  -->
<!DOCTYPE svg PUBLIC "-//W3C//DTD SVG 1.1//EN" "http://www.w3.org/Graphics/SVG/1.1/DTD/svg11.dtd">
<svg version="1.1" id="Слой_1" xmlns="http://www.w3.org/2000/svg" xmlns:xlink="http://www.w3.org/1999/xlink" x="0px" y="0px"
	 width="3200px" height="2000px" viewBox="0 0 3200 2000" enable-background="new 0 0 3200 2000" xml:space="preserve">
<path fill="#E7F3FE" d="M313.67,1696.392c0,0-241.426-299.37-96.57-584.253c144.856-284.884,420.085-217.285,806.367-506.998
	c468.948-351.711,798.239-371.039,1216.793-217.284c236.601,86.913,275.228,444.226,651.854,666.339
	c339.525,200.233,62.771,540.797-115.886,593.911c-178.656,53.113-299.367,53.113-299.367,53.113L313.67,1696.392z"/>
<path fill="#A2DFF2" d="M1751.043,1052.768c-60.257,122.321-135.809,456.578-156.415,474.892
	c-20.604,18.315-139.653,89.288-160.259,123.629c-20.604,34.342-11.446,22.896-2.287,25.185c9.156,2.29,526.566,4.578,526.566,4.578
	s-59.524-354.86-66.392-357.15C1885.386,1321.612,1751.043,1052.768,1751.043,1052.768z"/>
<path fill="#96CFE0" d="M1665.365,1679.394c95.028,0.663,195.305,1.186,250.508,1.457l-75.581-451.997
	c-40.311-78.154-89.249-176.086-89.249-176.086c-7.595,15.421-15.435,34.213-23.38,55.312
	c-7.836,339.486,41.058,434.641,4.331,495.131C1703.336,1650.415,1677.178,1671.531,1665.365,1679.394z"/>
<path fill="#666666" d="M2739.674,1703.706H255.129c-10.584,0-19.164-8.581-19.164-19.164c0-10.585,8.581-19.166,19.164-19.166
	h2484.545c10.583,0,19.166,8.581,19.166,19.166C2758.84,1695.125,2750.258,1703.706,2739.674,1703.706z"/>
<path fill="#A2DFF2" d="M2068.353,905.131c85.938,79.327,277.227,154.552,277.227,154.552s29.063,268.526,9.233,420.57
	c-19.831,152.045-8.815,182.894-8.815,182.894h-394.431c0,0-52.936-73.461-149.841-301.885
	c-61.698-145.432-50.683-308.494-50.683-308.494l240.187-107.974L2068.353,905.131z"/>
<path fill="#96CFE0" d="M1951.567,1663.147h394.431c0,0-11.016-30.849,8.815-182.894c16.33-125.197-0.493-329.366-6.941-397.565
	L2312,1067.315c-90.055,25.948-141.951,160.268-157.214,291.535c-10.212,87.831-155.724,174.292-250.908,221.896
	C1935.15,1640.355,1951.567,1663.147,1951.567,1663.147z"/>
<path fill="#2E5B9A" d="M1854.868,629.511c-47.545,105.896,9.521,203.993,7.791,199.857s71.965-178.792,71.965-178.792
	L1854.868,629.511z"/>
<path fill="#F4DDC1" d="M2035.042,707.816l60.301,220.406c1.7,6.221,0.252,12.848-3.814,17.853
	c-14.145,17.422-34.285,53.261-74.909,64.757c-7.898,2.235-17.63,2.833-25.506,2.862c-8.282,0.03-15.419-5.801-16.99-13.931
	l-40.402-209.048L2035.042,707.816z"/>
<path fill="#F9BFA0" d="M2023.528,726.238l-22.041,9.034l-67.763,55.442l36.374,185.339
	C2031.781,937.595,2040.776,911.639,2023.528,726.238z"/>
<path fill="#F4DDC1" d="M2032.827,805.313c-13.348,72.505-67.602,121.542-121.182,109.526
	c-53.58-12.014-79.142-58.943-72.849-153.036c4.934-73.818,41.335-154.056,94.917-142.04
	C1987.293,631.777,2046.172,732.807,2032.827,805.313z"/>
<path fill="#A2DFF2" d="M2345.58,1059.683c79.805,18.021,94.634,180.111,120.582,351.063
	c2.986,19.676,18.316,186.216,18.316,186.216s1.526,30.527-29.001,45.791c-26.081,13.042-36.632,22.896-187.741,24.422
	c-145.125,1.466-332.238-4.579-332.238-4.579s-1.656-54,13.228-80.388c22.386-39.685,251.851-96.669,273.219-99.722
	c3.053-42.738-21.072-197.372,12.211-302.219c22.895-72.121,47.509-109.898,78.344-119.772
	C2322.78,1057.203,2333.751,1057.012,2345.58,1059.683z"/>
<path fill="#96CFE0" d="M2017.557,1665.884c71.545,1.076,169.73,2.103,250.179,1.29c151.109-1.526,161.66-11.38,187.741-24.422
	c30.527-15.264,32.053-41.212,32.053-41.212s-15.427-177.21-18.314-196.901c-16.792-114.477-34.933-245.472-77.154-308.704
	c39.685,116.329,46.077,214.483,46.788,256.406c0.359,21.23-1.599,50.305-7.795,70.615c-6.866,22.513-24.422,36.633-51.896,29.001
	c-54.949-15.264-123.635,16.79-123.635,16.79s51.896-18.317,100.74-1.526c48.844,16.79,149.583,128.214,39.685,169.425
	C2362.318,1649.259,2160.889,1659.542,2017.557,1665.884z"/>
<path fill="#96CFE0" d="M1960.937,1587.295c0,0,20.352-34.597,62.074-34.597c41.72,0,38.667,68.177,32.562,90.564
	c-6.107,22.387-30.529,23.404-30.529,23.404l-89.546-4.07L1960.937,1587.295z"/>
<path fill="#75A1DE" d="M1870.159,1682.204h-564.505c-8.514,0-15.479-6.966-15.479-15.478v-4.45c0-8.513,6.966-15.479,15.479-15.479
	h564.505c8.512,0,15.478,6.965,15.478,15.479v4.45C1885.637,1675.238,1878.671,1682.204,1870.159,1682.204z"/>
<path fill="#F4DDC1" d="M1949.744,1591.365c-87.511-31.545-110.469-19.67-130.249-25.439c-48.843-14.246-61.054-2.035-92.599,84.458
	c-6.283,17.234,12.211,18.316,30.527,18.316c18.316,0,40.703-35.615,47.826-39.685s26.457-6.105,26.457-6.105
	s-6.105,0-15.264,18.316c-9.158,18.316-20.351,25.439-6.105,25.439s16.281-23.404,42.738-18.316
	c26.457,5.088,16.281,18.316,82.423,17.299c66.142-1.018,116.059-0.001,114.987-39.685c-1.019-37.65,3.15-56.476-32.562-63.089
	C1990.446,1557.786,1949.744,1591.365,1949.744,1591.365z"/>
<path fill="#1A1A1A" d="M1950.891,1591.365c58.51-6.614,41.339,66.269,35.233,72.375c-6.106,6.105,32.576,2.144,32.576,2.144
	s18.175-29.237,2.911-62.817c-15.263-33.58-45.791-35.106-45.791-35.106l-25.948,14.246L1950.891,1591.365z"/>
<ellipse transform="matrix(0.0833 -0.9965 0.9965 0.0833 237.3562 3422.5652)" fill="#2E5B9A" cx="1978.98" cy="1582.27" rx="16.412" ry="33.03"/>
<ellipse transform="matrix(0.0833 -0.9965 0.9965 0.0833 240.4077 3417.5742)" fill="#3E6BAB" cx="1977.793" cy="1578.116" rx="14.663" ry="29.511"/>
<ellipse transform="matrix(0.0833 -0.9965 0.9965 0.0833 241.7746 3412.8762)" fill="#E6E6E6" cx="1975.923" cy="1575.024" rx="10.555" ry="21.244"/>
<g>
	<path d="M1285.01,1570.385H716.344c-29.913,0-55.56-21.661-60.965-51.49l-74.166-409.393
		c-6.994-38.608,22.247-74.197,60.965-74.197h568.664c29.916,0,55.563,21.662,60.965,51.491l74.167,409.392
		C1352.97,1534.797,1323.729,1570.385,1285.01,1570.385z"/>
	<path fill="#1A1A1A" d="M1311.578,1497.724l-75.692-400.921c-5.516-29.213-31.692-50.426-62.223-50.426H595.761
		c-12.13,14.087-18.201,33.365-14.511,53.456l76.774,417.982c5.592,30.456,32.14,52.571,63.105,52.571h528.227
		C1288.873,1570.385,1318.717,1535.533,1311.578,1497.724z"/>
	<path d="M1174.457,1625.208h-107.953c-19.253,0-34.86-17.146-34.86-38.298v-197.375c0-33.665-24.842-60.954-55.486-60.954h-56.392
		c-30.642,0-55.484,27.29-55.484,60.954v221.04c0,37.798,28.005,68.374,62.413,68.138l294.623-2.023
		C1221.317,1648.256,1200.336,1625.208,1174.457,1625.208z"/>
	<path fill="#1A1A1A" d="M868.574,1393.965v217.653c0,35.433,27.464,64.4,62.213,66.899l287.534-1.797
		c-0.03-4.709-22.695-13.293-50.693-13.293H1050.85c-20.828,0-37.711-16.883-37.711-37.711v-231.751
		c0-33.149-26.873-60.021-60.021-60.021h-24.525C895.445,1333.944,868.574,1360.816,868.574,1393.965z"/>
</g>
<path fill="#F9BFA0" d="M1470.422,1600.127c43.455-24.141,96.562-16.094,115.874,8.047c19.314,24.14,22.532,40.233-20.921,40.233
	s-130.358,3.219-144.842,1.61C1406.049,1648.407,1470.422,1600.127,1470.422,1600.127z"/>
<path fill="#F9BFA0" d="M1534.797,1585.642c46.671-11.265,78.559,15.893,117.483,41.843c33.796,22.532,40.59,44.435,3.218,25.75
	c-54.717-27.359-86.905-30.578-86.905-30.578L1534.797,1585.642z"/>
<path fill="#F4DDC1" d="M1492.286,1599.979c-23.57,0-44.143-7.517-60.782-6.131c-16.639,1.387-69.322,55.458-61.004,59.618
	c0.594,0.298,1.246,0.572,1.942,0.829c12.51,4.602,26.626-0.5,33.677-11.812c7.454-11.966,19.584-25.889,33.703-20.906
	c23.572,8.319,48.304,7.518,48.304,7.518L1492.286,1599.979z"/>
<path fill="#F4DDC1" d="M1478.47,1658.063c-24.141-9.657,14.484-90.125,27.359-90.125s61.155,38.625,61.155,38.625
	s-11.357,6.407-49.889-6.437c-9.657-3.219-17.703,51.499-28.968,57.937C1476.861,1664.501,1478.47,1658.063,1478.47,1658.063z"/>
<path fill="#333333" d="M1838.758,804.178c-2.243,88.609,27.945,103.594,49.065,115.626c21.121,12.031,112.088-7.845,125.442-29.76
	c34.161-56.066,5.407-108.348,13.047-107.557c7.644,0.791,14.628,22.618,34.555,50.944c1.855,2.638,14.799,20.144,15.478,14.322
	c9.249-79.348,50.565-103.987,40.727-184.242c-7.252-59.164-44.809-54.468-44.809-54.468s-24.226-49.507-99.645-43.885
	c-50.529,3.766-95.577,23.452-147.663,36.859c-52.088,13.406,61.622,131.471,129.187,88.337
	c67.568-43.135,34.202,51.877,44.864,59.246c10.66,7.369,5.128,0.978,10.016,49.598c4.886,48.619-56.855,80.362-74.551,84.523
	c-56.58,13.308-66.043,3.975-78.434-17.333C1845.283,847.9,1838.758,804.178,1838.758,804.178z"/>
<path fill="#F9BFA0" d="M2072.966,776.741c-6.491,22.332-22.354,36.76-35.429,32.224c-13.077-4.536-13.469-22.682-11.928-48.648
	c1.391-23.407,22.354-36.759,35.429-32.224C2074.115,732.629,2079.455,754.409,2072.966,776.741z"/>
<g>
	<g>
		
			<linearGradient id="SVGID_1_" gradientUnits="userSpaceOnUse" x1="352.315" y1="1420.7219" x2="854.409" y2="1420.7219" gradientTransform="matrix(1 0 0 -1 -8.36 2024.0549)">
			<stop  offset="0" style="stop-color:#CCE0F4"/>
			<stop  offset="0.0641" style="stop-color:#C3DCF2"/>
			<stop  offset="0.1706" style="stop-color:#A9D2EE"/>
			<stop  offset="0.3066" style="stop-color:#80C2E7"/>
			<stop  offset="0.4649" style="stop-color:#47ACDE"/>
			<stop  offset="0.5674" style="stop-color:#1E9CD7"/>
			<stop  offset="0.8652" style="stop-color:#0075BE"/>
			<stop  offset="0.9944" style="stop-color:#005B97"/>
		</linearGradient>
		<path fill="url(#SVGID_1_)" d="M836.529,716.787H353.474c-5.257,0-9.519-4.263-9.519-9.52V499.399c0-5.257,4.262-9.52,9.519-9.52
			h483.055c5.258,0,9.52,4.262,9.52,9.52v207.868C846.048,712.524,841.786,716.787,836.529,716.787z"/>
		<path fill="#FFFFFF" d="M824.629,706.137H365.372c-4.248,0-7.688-3.443-7.688-7.689V557.184c0-4.247,3.44-7.689,7.688-7.689
			h459.257c4.248,0,7.69,3.442,7.69,7.689v141.264C832.319,702.695,828.877,706.137,824.629,706.137z"/>
		<g>
			<path fill="#FFFFFF" d="M380.062,524.281h-11.147c-2.354,0-4.262-1.909-4.262-4.262v-9.179c0-2.354,1.908-4.262,4.262-4.262
				h11.147c2.352,0,4.262,1.908,4.262,4.262v9.179C384.324,522.372,382.414,524.281,380.062,524.281z"/>
			<path fill="#FFFFFF" d="M415.824,524.281h-11.147c-2.352,0-4.26-1.909-4.26-4.262v-9.179c0-2.354,1.908-4.262,4.26-4.262h11.147
				c2.354,0,4.262,1.908,4.262,4.262v9.179C420.087,522.372,418.178,524.281,415.824,524.281z"/>
			<path fill="#FFFFFF" d="M451.589,524.281h-11.147c-2.354,0-4.26-1.909-4.26-4.262v-9.179c0-2.354,1.906-4.262,4.26-4.262h11.147
				c2.352,0,4.262,1.908,4.262,4.262v9.179C455.851,522.372,453.941,524.281,451.589,524.281z"/>
		</g>
		<path fill="#B7E1FF" d="M813.008,583.826H561.949c-4.131,0-7.511-3.379-7.511-7.51s3.38-7.511,7.511-7.511h251.059
			c4.131,0,7.511,3.38,7.511,7.511C820.518,580.448,817.138,583.826,813.008,583.826z"/>
		<path fill="#B7E1FF" d="M624.176,699.7H373.117c-4.131,0-7.511-3.38-7.511-7.51c0-4.131,3.38-7.511,7.511-7.511h251.059
			c4.133,0,7.511,3.38,7.511,7.511C631.686,696.32,628.309,699.7,624.176,699.7z"/>
		<path fill="#B7E1FF" d="M670.425,699.7h-25.976c-1.413,0-2.568-1.155-2.568-2.568v-9.884c0-1.412,1.155-2.568,2.568-2.568h25.976
			c1.413,0,2.568,1.156,2.568,2.568v9.884C672.993,698.545,671.838,699.7,670.425,699.7z"/>
		<path fill="#B7E1FF" d="M709.587,699.7h-25.978c-1.411,0-2.568-1.155-2.568-2.568v-9.884c0-1.412,1.157-2.568,2.568-2.568h25.978
			c1.411,0,2.568,1.156,2.568,2.568v9.884C712.155,698.545,710.998,699.7,709.587,699.7z"/>
		<path fill="#B7E1FF" d="M815.42,616.55H399.67c-2.802,0-5.096-2.293-5.096-5.096c0-2.802,2.294-5.096,5.096-5.096h415.75
			c2.804,0,5.098,2.293,5.098,5.096C820.518,614.257,818.225,616.55,815.42,616.55z"/>
		<path fill="#B7E1FF" d="M815.42,638.545H399.67c-2.802,0-5.096-2.293-5.096-5.096s2.294-5.096,5.096-5.096h415.75
			c2.804,0,5.098,2.294,5.098,5.096S818.225,638.545,815.42,638.545z"/>
	</g>
	<g>
		<path fill="#29ABE2" d="M949.982,876.106H466.927c-5.257,0-9.52-4.263-9.52-9.521V658.718c0-5.258,4.262-9.521,9.52-9.521h483.055
			c5.257,0,9.521,4.263,9.521,9.521v207.868C959.503,871.843,955.239,876.106,949.982,876.106z"/>
		<path fill="#FFFFFF" d="M938.084,865.456H478.827c-4.248,0-7.69-3.442-7.69-7.689V716.502c0-4.247,3.442-7.689,7.69-7.689h459.257
			c4.248,0,7.69,3.443,7.69,7.689v141.264C945.774,862.013,942.332,865.456,938.084,865.456z"/>
		<g>
			<path fill="#FFFFFF" d="M493.515,683.599h-11.147c-2.352,0-4.26-1.909-4.26-4.262v-9.179c0-2.354,1.908-4.262,4.26-4.262h11.147
				c2.354,0,4.262,1.908,4.262,4.262v9.179C497.777,681.691,495.869,683.599,493.515,683.599z"/>
			<path fill="#FFFFFF" d="M529.279,683.599h-11.147c-2.354,0-4.262-1.909-4.262-4.262v-9.179c0-2.354,1.908-4.262,4.262-4.262
				h11.147c2.352,0,4.262,1.908,4.262,4.262v9.179C533.541,681.691,531.631,683.599,529.279,683.599z"/>
			<path fill="#FFFFFF" d="M565.042,683.599h-11.145c-2.354,0-4.264-1.909-4.264-4.262v-9.179c0-2.354,1.91-4.262,4.264-4.262
				h11.145c2.354,0,4.264,1.908,4.264,4.262v9.179C569.306,681.691,567.396,683.599,565.042,683.599z"/>
		</g>
		<path fill="#9EC8FF" d="M926.463,743.144H675.401c-4.129,0-7.511-3.38-7.511-7.51c0-4.131,3.382-7.511,7.511-7.511h251.061
			c4.129,0,7.509,3.38,7.509,7.511C933.971,739.765,930.591,743.144,926.463,743.144z"/>
		<path fill="#9EC8FF" d="M737.631,859.018H486.572c-4.131,0-7.511-3.38-7.511-7.51c0-4.131,3.38-7.511,7.511-7.511h251.059
			c4.131,0,7.511,3.38,7.511,7.511C745.141,855.638,741.762,859.018,737.631,859.018z"/>
		<path fill="#9EC8FF" d="M783.88,859.018h-25.978c-1.411,0-2.568-1.155-2.568-2.568v-9.884c0-1.412,1.157-2.568,2.568-2.568h25.978
			c1.411,0,2.568,1.156,2.568,2.568v9.884C786.448,857.863,785.291,859.018,783.88,859.018z"/>
		<path fill="#9EC8FF" d="M823.04,859.018h-25.976c-1.413,0-2.568-1.155-2.568-2.568v-9.884c0-1.412,1.155-2.568,2.568-2.568h25.976
			c1.413,0,2.568,1.156,2.568,2.568v9.884C825.608,857.863,824.453,859.018,823.04,859.018z"/>
		<path fill="#9EC8FF" d="M928.875,775.868h-415.75c-2.802,0-5.096-2.294-5.096-5.096s2.294-5.096,5.096-5.096h415.75
			c2.804,0,5.096,2.294,5.096,5.096C933.971,773.575,931.68,775.868,928.875,775.868z"/>
		<path fill="#9EC8FF" d="M928.875,797.863h-415.75c-2.802,0-5.096-2.294-5.096-5.096c0-2.803,2.294-5.096,5.096-5.096h415.75
			c2.804,0,5.096,2.293,5.096,5.096C933.971,795.569,931.68,797.863,928.875,797.863z"/>
	</g>
</g>
<g>
	<path fill="#333333" d="M1555.724,517.834h-414.407c-10.624,0-19.314-8.691-19.314-19.314V350.46
		c0-10.621,8.69-19.312,19.314-19.312h414.407c10.622,0,19.312,8.691,19.312,19.312v148.06
		C1575.036,509.143,1566.346,517.834,1555.724,517.834z"/>
	<path fill="#333333" d="M1176.722,489.669v103l118.69-118.69C1295.412,473.978,1179.137,489.669,1176.722,489.669z"/>
	<path fill="#FFFFFF" d="M1535.229,499.326h-373.42c-9.007,0-16.374-7.367-16.374-16.373V366.029
		c0-9.006,7.367-16.373,16.374-16.373h373.42c9.007,0,16.376,7.367,16.376,16.373v116.924
		C1551.605,491.958,1544.236,499.326,1535.229,499.326z"/>
	<path fill="#F15A24" d="M1366.626,386.671h-183.467c-4.426,0-8.046-3.621-8.046-8.047s3.62-8.048,8.046-8.048h183.467
		c4.426,0,8.046,3.622,8.046,8.048S1371.052,386.671,1366.626,386.671z"/>
	<path fill="#F15A24" d="M1519.869,417.436h-340.282c-2.461,0-4.474-2.013-4.474-4.473v-0.093c0-2.46,2.013-4.474,4.474-4.474
		h340.282c2.459,0,4.474,2.014,4.474,4.474v0.093C1524.343,415.423,1522.328,417.436,1519.869,417.436z"/>
	<path fill="#F15A24" d="M1519.869,434.951h-340.282c-2.461,0-4.474-2.013-4.474-4.474v-0.092c0-2.461,2.013-4.474,4.474-4.474
		h340.282c2.459,0,4.474,2.013,4.474,4.474v0.092C1524.343,432.938,1522.328,434.951,1519.869,434.951z"/>
	<g>
		<path fill="#9EC8FF" d="M1449.536,492.888h-11.145c-2.354,0-4.262-1.908-4.262-4.262v-9.179c0-2.353,1.908-4.262,4.262-4.262
			h11.145c2.354,0,4.264,1.909,4.264,4.262v9.179C1453.8,490.98,1451.89,492.888,1449.536,492.888z"/>
		<path fill="#9EC8FF" d="M1485.3,492.888h-11.147c-2.352,0-4.26-1.908-4.26-4.262v-9.179c0-2.353,1.908-4.262,4.26-4.262h11.147
			c2.354,0,4.262,1.909,4.262,4.262v9.179C1489.562,490.98,1487.654,492.888,1485.3,492.888z"/>
		<path fill="#9EC8FF" d="M1521.064,492.888h-11.147c-2.354,0-4.262-1.908-4.262-4.262v-9.179c0-2.353,1.908-4.262,4.262-4.262
			h11.147c2.352,0,4.262,1.909,4.262,4.262v9.179C1525.326,490.98,1523.416,492.888,1521.064,492.888z"/>
	</g>
</g>
<g>
	<path fill="#9CD499" d="M350.141,1557.448c0-6.704,80.725-229.808,26.147-373.433C338.073,1083.449,332.04,962.77,332.04,962.77
		s-74.419,106.599-24.136,269.516c30.948,100.273,43.579,128.053,46.26,157.553s-12.068,176.996-12.068,176.996L350.141,1557.448z"
		/>
	<g>
		<path fill="#74B570" d="M342.095,1569.315c-0.329,0-0.66-0.066-0.975-0.2c-0.997-0.426-1.601-1.449-1.493-2.528
			c0.147-1.473,14.695-147.596,12.065-176.524c-1.748-19.248-7.694-37.44-20.718-77.302c-6.671-20.417-14.974-45.827-25.442-79.744
			c-26.147-84.716-18.139-154.004-6.816-197.213c12.289-46.903,30.519-73.353,31.289-74.456c0.606-0.869,1.701-1.256,2.718-0.964
			c1.02,0.294,1.739,1.202,1.793,2.261c0.06,1.202,6.459,121.457,44.09,220.488c20.41,53.708,24.507,124.533,12.18,210.509
			c-9.842,68.643-27.393,127.315-34.887,152.369c-1.708,5.71-3.183,10.641-3.283,11.548c0,0.593-0.207,1.053-0.594,1.502
			l-8.045,9.387C343.498,1569.011,342.803,1569.315,342.095,1569.315z M330.073,970.655c-6.117,10.541-17.993,33.617-26.618,66.64
			c-11.113,42.538-18.949,110.771,6.82,194.259c10.454,33.878,18.75,59.266,25.416,79.666
			c13.143,40.228,19.142,58.588,20.944,78.394c2.346,25.809-8.266,138.434-11.299,169.628l2.452-2.861
			c0.289-1.475,1.153-4.417,3.36-11.792c46.618-155.846,54.297-276.864,22.82-359.695
			C341.594,1099.698,332.173,999.013,330.073,970.655z"/>
	</g>
	<path fill="#9CD499" d="M367.573,1580.243c-12.069-248.062,46.93-383.49,167.609-490.76s126.041-135.428,126.041-135.428
		s-18.773,209.177-88.497,281.584c-69.726,72.407-171.632,126.042-186.382,163.586c-14.749,37.544-9.386,163.586-9.386,163.586
		l-9.385,22.795V1580.243z"/>
	<path fill="#9CD499" d="M352.823,1601.697c-1.341-4.023,25.476-231.972,123.36-245.38c97.885-13.409,120.679,9.386,187.722-1.342
		c47.831-7.653,84.476-22.794,84.476-22.794s-25.395,64.629-112.633,91.18c-61.68,18.773-142.133-12.069-189.064-4.023
		c-46.93,8.046-71.066,108.611-71.066,108.611l-8.045,52.294L352.823,1601.697z"/>
	<g>
		<path fill="#74B570" d="M366.229,1567.974c-1.267,0-2.349-0.965-2.466-2.252c-0.149-1.603-14.035-161.744,53.935-284.355
			c35.108-63.334,73.447-100.039,110.523-135.535c34.539-33.067,67.163-64.301,91.899-113.775c0.614-1.227,2.101-1.719,3.328-1.11
			c1.227,0.613,1.722,2.103,1.111,3.328c-25.123,50.243-58.049,81.766-92.906,115.14c-36.81,35.24-74.872,71.68-109.617,134.355
			c-67.214,121.25-53.481,279.906-53.335,281.494c0.126,1.364-0.876,2.572-2.241,2.698
			C366.382,1567.971,366.304,1567.974,366.229,1567.974z"/>
	</g>
	<g>
		<path fill="#74B570" d="M359.529,1535.794c-0.229,0-0.463-0.032-0.693-0.1c-1.316-0.381-2.075-1.757-1.692-3.073
			c25.668-88.469,55.125-140.085,92.704-162.44c33.595-19.988,68.314-13.852,105.076-7.357c8.999,1.59,18.302,3.234,27.512,4.442
			c79.882,10.476,118.837-8.935,119.219-9.132c1.22-0.624,2.715-0.146,3.34,1.069c0.628,1.217,0.151,2.711-1.063,3.34
			c-1.615,0.837-40.512,20.349-122.143,9.642c-9.318-1.222-18.677-2.876-27.73-4.475c-35.821-6.332-69.661-12.31-101.676,6.735
			c-36.431,21.672-65.179,72.373-90.475,159.558C361.594,1535.089,360.605,1535.794,359.529,1535.794z"/>
	</g>
	<g>
		<path fill="#74B570" d="M487.583,1191.859c-0.743,0-1.478-0.332-1.966-0.966c-0.836-1.084-0.636-2.642,0.449-3.479
			c0.473-0.367,48.164-36.712,114.35-49.415c1.346-0.254,2.646,0.623,2.904,1.97c0.258,1.344-0.622,2.645-1.968,2.903
			c-65.042,12.482-111.791,48.112-112.257,48.47C488.645,1191.69,488.112,1191.859,487.583,1191.859z"/>
	</g>
	<g>
		<path fill="#74B570" d="M411.82,1299.8c-0.431,0-0.867-0.112-1.263-0.347c-1.179-0.699-1.569-2.221-0.869-3.4
			c34.918-58.882,75.811-73.719,164.978-101.667c1.299-0.413,2.699,0.318,3.109,1.625c0.409,1.307-0.318,2.699-1.626,3.109
			c-87.909,27.554-128.206,42.15-162.194,99.464C413.492,1299.366,412.666,1299.8,411.82,1299.8z"/>
	</g>
	<path fill="#F39892" d="M390.138,1662.707h-59.88c-21.143,0-39.305-15.019-43.275-35.786l-19.306-100.984h185.041l-19.307,100.984
		C429.443,1647.687,411.281,1662.707,390.138,1662.707z"/>
	<g>
		<path fill="#D54A41" d="M448.025,1551.683H273.711c-2.741,0-4.962-2.222-4.962-4.962c0-2.741,2.221-4.963,4.962-4.963h174.313
			c2.741,0,4.962,2.222,4.962,4.963C452.986,1549.462,450.765,1551.683,448.025,1551.683z"/>
	</g>
</g>
</svg>
