<!-- Generator: Adobe Illustrator 17.0.0, SVG Export Plug-In  -->
<svg version="1.1"
	 xmlns="http://www.w3.org/2000/svg" xmlns:xlink="http://www.w3.org/1999/xlink" xmlns:a="http://ns.adobe.com/AdobeSVGViewerExtensions/3.0/"
	 x="0px" y="0px" width="242.232px" height="216.927px" viewBox="0 0 242.232 216.927" enable-background="new 0 0 242.232 216.927"
	 xml:space="preserve">
<defs>
</defs>
<g>
	<g>
		
			<linearGradient id="SVGID_1_" gradientUnits="userSpaceOnUse" x1="6947.3491" y1="134.5574" x2="6995.2588" y2="134.5574" gradientTransform="matrix(-1 0 0 1 7099.1147 0)">
			<stop  offset="0" style="stop-color:#1C1F33"/>
			<stop  offset="1" style="stop-color:#0E101A"/>
		</linearGradient>
		<polygon fill="url(#SVGID_1_)" points="103.96,137.584 151.765,137.353 151.664,131.531 103.856,131.662 		"/>
		
			<linearGradient id="SVGID_2_" gradientUnits="userSpaceOnUse" x1="6962.3115" y1="222.3895" x2="6973.8115" y2="170.6393" gradientTransform="matrix(-1 0 0 1 7099.1147 0)">
			<stop  offset="0" style="stop-color:#2B304F"/>
			<stop  offset="1" style="stop-color:#1D2136"/>
		</linearGradient>
		<path fill="url(#SVGID_2_)" d="M98.852,198.721l1.021-49.28c0.028-1.416,0.107-2.793,0.224-4.066
			c0.116-1.278,0.271-2.455,0.453-3.467c0.183-1.016,0.394-1.866,0.619-2.486c0.227-0.622,0.47-1.011,0.717-1.099l2.073-0.738
			l47.806-0.23l-2.956,0.73c-0.352,0.087-0.701,0.47-1.029,1.083c-0.326,0.609-0.632,1.446-0.9,2.446
			c-0.267,0.996-0.496,2.154-0.672,3.412c-0.176,1.254-0.299,2.609-0.351,4.002l-1.834,48.509c-0.023,0.592-0.03,1.175-0.025,1.743
			c0.005,0.567,0.024,1.12,0.057,1.651c0.032,0.531,0.077,1.041,0.136,1.523c0.059,0.482,0.129,0.938,0.213,1.358
			c0.084,0.422,0.18,0.8,0.283,1.133c0.105,0.334,0.219,0.622,0.34,0.86c0.121,0.239,0.252,0.43,0.388,0.568
			c0.137,0.139,0.28,0.226,0.429,0.257l12.611,2.653l-49.396,1.509l-8.88-2.816c-0.104-0.033-0.205-0.122-0.302-0.265
			c-0.097-0.142-0.188-0.337-0.275-0.581c-0.087-0.244-0.168-0.537-0.243-0.877c-0.074-0.339-0.143-0.725-0.205-1.154
			c-0.061-0.428-0.113-0.891-0.156-1.381c-0.044-0.491-0.078-1.01-0.104-1.55c-0.025-0.54-0.042-1.102-0.049-1.679
			C98.838,199.914,98.841,199.321,98.852,198.721z"/>
		<path opacity="0.4" fill="#3C416B" d="M144.489,185.217l1.368-36.189c0.052-1.393,0.175-2.748,0.351-4.002
			c0.176-1.258,0.405-2.416,0.672-3.412c0.266-0.988,0.567-1.816,0.89-2.424l-44.016-1.532l-1.867,0.665
			c-0.247,0.088-0.49,0.477-0.717,1.099c-0.226,0.62-0.436,1.471-0.619,2.486c-0.182,1.012-0.337,2.189-0.453,3.467
			c-0.116,1.273-0.195,2.65-0.224,4.066l-0.986,47.589L144.489,185.217z"/>
		
			<linearGradient id="SVGID_3_" gradientUnits="userSpaceOnUse" x1="6965.2012" y1="212.0366" x2="6968.3682" y2="242.7045" gradientTransform="matrix(-1 0 0 1 7099.1147 0)">
			<stop  offset="0" style="stop-color:#1C1F33"/>
			<stop  offset="1" style="stop-color:#0E101A"/>
		</linearGradient>
		<polygon fill="url(#SVGID_3_)" points="109.165,216.927 158.559,215.31 158.454,209.284 109.058,210.793 		"/>
		
			<radialGradient id="SVGID_4_" cx="6965.5264" cy="210.0437" r="16.3805" gradientTransform="matrix(-1 0 0 1 7099.1147 0)" gradientUnits="userSpaceOnUse">
			<stop  offset="0" style="stop-color:#798294"/>
			<stop  offset="0.0763" style="stop-color:#506C8F"/>
			<stop  offset="0.0832" style="stop-color:#486588"/>
			<stop  offset="0.1061" style="stop-color:#345275"/>
			<stop  offset="0.1321" style="stop-color:#264468"/>
			<stop  offset="0.1637" style="stop-color:#1E3C60"/>
			<stop  offset="0.2161" style="stop-color:#1B3A5E"/>
			<stop  offset="0.2822" style="stop-color:#152C48"/>
			<stop  offset="0.3795" style="stop-color:#0D1C2E"/>
			<stop  offset="0.487" style="stop-color:#071019"/>
			<stop  offset="0.6085" style="stop-color:#03070B"/>
			<stop  offset="0.7557" style="stop-color:#010203"/>
			<stop  offset="1" style="stop-color:#000000"/>
		</radialGradient>
		<path opacity="0.9" fill="url(#SVGID_4_)" d="M156.743,209.337l-46.31,1.414C110.433,210.751,148.371,210.318,156.743,209.337z"/>
		
			<linearGradient id="SVGID_5_" gradientUnits="userSpaceOnUse" x1="6995.4004" y1="176.9789" x2="6983.1504" y2="206.1041" gradientTransform="matrix(-1 0 0 1 7099.1147 0)">
			<stop  offset="0" style="stop-color:#05070A"/>
			<stop  offset="1" style="stop-color:#080A0F"/>
		</linearGradient>
		<path fill="url(#SVGID_5_)" d="M101.785,132.516c-0.357,0.147-0.705,0.713-1.026,1.604c-0.32,0.887-0.616,2.096-0.871,3.54
			c-0.255,1.436-0.471,3.105-0.632,4.925c-0.161,1.812-0.271,3.775-0.312,5.81l-0.995,48.87c-0.02,1.014-0.024,2.018-0.011,3.002
			c0.014,0.985,0.044,1.95,0.091,2.887c0.046,0.937,0.109,1.844,0.188,2.712c0.079,0.869,0.174,1.699,0.284,2.48
			c0.109,0.781,0.232,1.484,0.363,2.104c0.132,0.621,0.274,1.157,0.424,1.604c0.15,0.448,0.31,0.807,0.475,1.069
			c0.166,0.264,0.338,0.432,0.516,0.498l8.887,3.306l-0.106-6.134l-8.88-2.816c-0.104-0.033-0.205-0.122-0.302-0.265
			c-0.097-0.142-0.188-0.337-0.275-0.581c-0.087-0.244-0.168-0.537-0.243-0.877c-0.074-0.339-0.143-0.725-0.205-1.154
			c-0.061-0.428-0.113-0.891-0.156-1.381c-0.044-0.491-0.078-1.01-0.104-1.55c-0.025-0.54-0.042-1.102-0.049-1.679
			c-0.007-0.576-0.004-1.169,0.008-1.77l1.021-49.28c0.028-1.416,0.107-2.793,0.224-4.066c0.116-1.278,0.271-2.455,0.453-3.467
			c0.183-1.016,0.394-1.866,0.619-2.486c0.227-0.622,0.47-1.011,0.717-1.099l2.073-0.738l-0.103-5.922L101.785,132.516z"/>
	</g>
	<g>
		
			<linearGradient id="SVGID_6_" gradientUnits="userSpaceOnUse" x1="7094.2065" y1="-8.1666" x2="7089.8735" y2="139.8342" gradientTransform="matrix(-1 0 0 1 7099.1147 0)">
			<stop  offset="0" style="stop-color:#1C1F33"/>
			<stop  offset="1" style="stop-color:#0E101A"/>
		</linearGradient>
		<path fill="url(#SVGID_6_)" d="M0.207,7.883c0.169-0.754,0.438-1.449,0.789-2.071C1.347,5.19,1.783,4.643,2.288,4.188
			C2.792,3.733,3.365,3.37,3.99,3.116c2.202-0.897,4.404-1.794,6.607-2.691C9.969,0.68,9.395,1.045,8.889,1.503
			C8.384,1.96,7.947,2.51,7.594,3.135S6.972,4.46,6.804,5.219c-0.17,0.759-0.238,1.575-0.192,2.433l7.646,142.629l-6.76,1.659
			L0.013,10.299C-0.032,9.447,0.038,8.636,0.207,7.883z"/>
		
			<radialGradient id="SVGID_7_" cx="7083.9648" cy="150.3528" r="120.7834" gradientTransform="matrix(-1 0 0 1 7099.1147 0)" gradientUnits="userSpaceOnUse">
			<stop  offset="0" style="stop-color:#798294"/>
			<stop  offset="0.2215" style="stop-color:#506C8F"/>
			<stop  offset="0.2344" style="stop-color:#486588"/>
			<stop  offset="0.2776" style="stop-color:#345275"/>
			<stop  offset="0.3267" style="stop-color:#264468"/>
			<stop  offset="0.3862" style="stop-color:#1E3C60"/>
			<stop  offset="0.4849" style="stop-color:#1B3A5E"/>
			<stop  offset="0.5284" style="stop-color:#152C48"/>
			<stop  offset="0.5923" style="stop-color:#0D1C2E"/>
			<stop  offset="0.6629" style="stop-color:#071019"/>
			<stop  offset="0.7428" style="stop-color:#03070B"/>
			<stop  offset="0.8395" style="stop-color:#010203"/>
			<stop  offset="1" style="stop-color:#000000"/>
		</radialGradient>
		<path opacity="0.7" fill="url(#SVGID_7_)" d="M6.513,8.924C6.479,8.284,6.53,7.677,6.619,7.09
			C6.618,7.277,6.602,7.459,6.612,7.651l7.646,142.629l-0.272,0.066L6.513,8.924z"/>
		<path fill="#3C416B" d="M13.388,0.028c-0.994-0.094-1.93,0.05-2.771,0.388c-0.841,0.339-1.587,0.873-2.2,1.563
			c-0.614,0.689-1.096,1.535-1.41,2.494C6.695,5.431,6.551,6.505,6.612,7.651l7.646,142.629l226.626,4.041l-9.962-126.603
			c-0.08-1.02-0.317-2.005-0.676-2.914c-0.359-0.91-0.841-1.744-1.411-2.46c-0.571-0.717-1.23-1.315-1.945-1.753
			c-0.716-0.438-1.486-0.716-2.279-0.79L13.388,0.028z"/>
		
			<linearGradient id="SVGID_8_" gradientUnits="userSpaceOnUse" x1="6862.106" y1="165.117" x2="7091.6172" y2="165.117" gradientTransform="matrix(-1 0 0 1 7099.1147 0)">
			<stop  offset="0" style="stop-color:#05070A"/>
			<stop  offset="1" style="stop-color:#080A0F"/>
		</linearGradient>
		<path fill="url(#SVGID_8_)" d="M14.258,150.28l1.013,18.893c0.063,1.188,0.33,2.321,0.757,3.354
			c0.428,1.032,1.016,1.963,1.721,2.745c0.707,0.781,1.53,1.415,2.431,1.854c0.899,0.438,1.874,0.683,2.884,0.686l213.946,0.847
			l-7.464,1.296L16.244,179.27c-1.006-0.004-1.977-0.245-2.873-0.68c-0.896-0.436-1.716-1.063-2.418-1.84
			c-0.703-0.775-1.287-1.699-1.712-2.724c-0.425-1.025-0.689-2.15-0.751-3.33l-0.992-18.758L14.258,150.28z"/>
		
			<linearGradient id="SVGID_9_" gradientUnits="userSpaceOnUse" x1="6973.8262" y1="166.1843" x2="7052.1597" y2="261.519" gradientTransform="matrix(-1 0 0 1 7099.1147 0)">
			<stop  offset="0" style="stop-color:#2B304F"/>
			<stop  offset="1" style="stop-color:#1D2136"/>
		</linearGradient>
		<path fill="url(#SVGID_9_)" d="M14.258,150.28l1.013,18.893c0.063,1.188,0.33,2.321,0.757,3.354
			c0.428,1.032,1.016,1.963,1.721,2.745c0.707,0.781,1.53,1.415,2.431,1.854c0.899,0.438,1.874,0.683,2.884,0.686l213.946,0.847
			c0.802,0.003,1.548-0.208,2.211-0.592c0.662-0.384,1.242-0.94,1.712-1.628c0.469-0.688,0.827-1.508,1.048-2.418
			c0.221-0.91,0.304-1.912,0.221-2.964l-1.316-16.735L14.258,150.28z"/>
		<g>
			<g>
				<polygon fill="#5486EB" points="21.699,110.897 24.055,110.955 23.104,93.299 20.751,93.215 				"/>
				<polygon fill="#5486EB" points="17.417,30.897 19.751,31.077 18.822,13.865 16.494,13.661 				"/>
				<polygon fill="#5486EB" points="49.218,55.099 57.837,55.634 57.688,53.192 49.074,52.642 				"/>
				<polygon fill="#5486EB" points="93.846,55.491 94.005,57.876 143.001,60.913 142.833,58.607 				"/>
			</g>
			<g>
				<polygon fill="#DA646D" points="63.852,81.348 64.003,83.808 90.284,84.944 90.128,82.529 				"/>
				<polygon fill="#DA646D" points="70.89,98.059 91.18,98.744 91.019,96.318 70.738,95.597 				"/>
				<polygon fill="#DA646D" points="66.564,126.14 92.98,126.529 92.821,124.081 66.413,123.65 				"/>
				<polygon fill="#DA646D" points="73.495,140.401 93.882,140.504 93.725,138.055 73.342,137.919 				"/>
				<polygon fill="#DA646D" points="80.014,68.308 56.934,67.056 57.08,69.513 80.166,70.728 				"/>
			</g>
			<g>
				<polygon fill="#EECD4F" points="88.356,55.142 88.509,57.533 63.212,55.966 63.063,53.534 				"/>
			</g>
			<g>
				<polygon fill="#5A6275" points="28.615,25.676 37.423,26.386 37.282,23.935 28.477,23.21 				"/>
				<polygon fill="#5A6275" points="29.395,39.765 38.217,40.393 38.076,37.931 29.258,37.289 				"/>
				<polygon fill="#5A6275" points="30.18,53.92 39.019,54.467 38.879,51.993 30.042,51.431 				"/>
				<polygon fill="#5A6275" points="31.758,82.414 40.63,82.796 40.486,80.302 31.618,79.902 				"/>
				<polygon fill="#5A6275" points="32.553,96.765 41.439,97.063 41.295,94.557 32.415,94.242 				"/>
				<polygon fill="#5A6275" points="34.151,125.665 43.07,125.797 42.926,123.264 34.013,123.119 				"/>
				<polygon fill="#5A6275" points="34.958,140.206 43.889,140.253 43.745,137.719 34.817,137.658 				"/>
				<polygon fill="#5A6275" points="30.968,68.138 39.821,68.604 39.678,66.12 30.83,65.638 				"/>
				<polygon fill="#5A6275" points="33.352,111.182 42.253,111.396 42.11,108.88 33.211,108.647 				"/>
				<polygon fill="#5A6275" points="79.756,27.425 79.906,29.806 112.961,32.468 112.801,30.137 				"/>
			</g>
			<g>
				<polygon fill="#B74DD0" points="47.586,27.203 69.967,29.006 69.815,26.606 47.445,24.768 				"/>
				<polygon fill="#B74DD0" points="123.285,31.001 123.449,33.313 139.344,34.594 139.176,32.306 				"/>
			</g>
			<g>
				<polygon fill="#A4D05F" points="96.7,98.93 121.734,99.775 121.568,97.4 96.54,96.514 				"/>
				<polygon fill="#A4D05F" points="99.43,140.532 124.581,140.659 124.414,138.264 99.268,138.093 				"/>
				<polygon fill="#A4D05F" points="145.216,32.802 145.382,35.079 208.091,40.131 207.906,37.953 				"/>
			</g>
		</g>
		
			<linearGradient id="SVGID_10_" gradientUnits="userSpaceOnUse" x1="7062.6211" y1="102.0421" x2="6903.8564" y2="-11.1855" gradientTransform="matrix(-1 0 0 1 7099.1147 0)">
			<stop  offset="0" style="stop-color:#FFFFFF;stop-opacity:0"/>
			<stop  offset="1" style="stop-color:#CED0D4"/>
		</linearGradient>
		<path opacity="0.5" fill="url(#SVGID_10_)" d="M66.377,4.988l71.149,6.661L36.382,177.864l-13.319-0.053
			c-1.01-0.004-1.984-0.248-2.884-0.686c-0.9-0.439-1.724-1.072-2.431-1.854c-0.705-0.782-1.293-1.713-1.721-2.745
			c-0.427-1.032-0.693-2.166-0.757-3.354l-1.013-18.893l-2.939-54.814L66.377,4.988z"/>
		
			<linearGradient id="SVGID_11_" gradientUnits="userSpaceOnUse" x1="6938.9229" y1="135.9259" x2="6795.3506" y2="33.533" gradientTransform="matrix(-1 0 0 1 7099.1147 0)">
			<stop  offset="0" style="stop-color:#FFFFFF;stop-opacity:0"/>
			<stop  offset="1" style="stop-color:#CED0D4"/>
		</linearGradient>
		<path opacity="0.5" fill="url(#SVGID_11_)" d="M201.131,178.516l-75.021-0.297l96.513-158.604l1.988,0.187
			c0.793,0.074,1.564,0.351,2.279,0.79c0.715,0.438,1.374,1.036,1.945,1.753c0.57,0.716,1.052,1.55,1.411,2.46
			c0.358,0.909,0.596,1.895,0.676,2.914l7.096,90.18L201.131,178.516z"/>
		
			<radialGradient id="SVGID_12_" cx="21065.2695" cy="42437.8281" r="34.3509" gradientTransform="matrix(0.0364 0.9024 -0.1325 -0.4216 5092.5933 -1020.542)" gradientUnits="userSpaceOnUse">
			<stop  offset="0" style="stop-color:#798294"/>
			<stop  offset="0.0763" style="stop-color:#506C8F"/>
			<stop  offset="0.0832" style="stop-color:#486588"/>
			<stop  offset="0.1061" style="stop-color:#345275"/>
			<stop  offset="0.1321" style="stop-color:#264468"/>
			<stop  offset="0.1637" style="stop-color:#1E3C60"/>
			<stop  offset="0.2161" style="stop-color:#1B3A5E"/>
			<stop  offset="0.2822" style="stop-color:#152C48"/>
			<stop  offset="0.3795" style="stop-color:#0D1C2E"/>
			<stop  offset="0.487" style="stop-color:#071019"/>
			<stop  offset="0.6085" style="stop-color:#03070B"/>
			<stop  offset="0.7557" style="stop-color:#010203"/>
			<stop  offset="1" style="stop-color:#000000"/>
		</radialGradient>
		<path opacity="0.9" fill="url(#SVGID_12_)" d="M237.607,127.954c-2.515-7.997-5.113-28.353-5.804-45.466
			c-0.69-17.115,0.787-24.506,3.302-16.51c2.516,7.998,5.113,28.355,5.805,45.469C241.6,128.561,240.122,135.953,237.607,127.954z"
			/>
		
			<radialGradient id="SVGID_13_" cx="6862.7588" cy="96.783" r="32.412" gradientTransform="matrix(-1 0 0 1 7099.1147 0)" gradientUnits="userSpaceOnUse">
			<stop  offset="0" style="stop-color:#798294"/>
			<stop  offset="0.0763" style="stop-color:#506C8F"/>
			<stop  offset="0.0832" style="stop-color:#486588"/>
			<stop  offset="0.1061" style="stop-color:#345275"/>
			<stop  offset="0.1321" style="stop-color:#264468"/>
			<stop  offset="0.1637" style="stop-color:#1E3C60"/>
			<stop  offset="0.2161" style="stop-color:#1B3A5E"/>
			<stop  offset="0.2822" style="stop-color:#152C48"/>
			<stop  offset="0.3795" style="stop-color:#0D1C2E"/>
			<stop  offset="0.487" style="stop-color:#071019"/>
			<stop  offset="0.6085" style="stop-color:#03070B"/>
			<stop  offset="0.7557" style="stop-color:#010203"/>
			<stop  offset="1" style="stop-color:#000000"/>
		</radialGradient>
		<path opacity="0.9" fill="url(#SVGID_13_)" d="M232.76,51.087l7.191,91.393C239.952,142.479,235.151,93.209,232.76,51.087z"/>
		
			<radialGradient id="SVGID_14_" cx="4063.4187" cy="13349.6641" r="34.3484" gradientTransform="matrix(0.8898 0.1735 -0.4475 0.1488 2471.0752 -2681.7402)" gradientUnits="userSpaceOnUse">
			<stop  offset="0" style="stop-color:#798294"/>
			<stop  offset="0.0763" style="stop-color:#506C8F"/>
			<stop  offset="0.0832" style="stop-color:#486588"/>
			<stop  offset="0.1061" style="stop-color:#345275"/>
			<stop  offset="0.1321" style="stop-color:#264468"/>
			<stop  offset="0.1637" style="stop-color:#1E3C60"/>
			<stop  offset="0.2161" style="stop-color:#1B3A5E"/>
			<stop  offset="0.2822" style="stop-color:#152C48"/>
			<stop  offset="0.3795" style="stop-color:#0D1C2E"/>
			<stop  offset="0.487" style="stop-color:#071019"/>
			<stop  offset="0.6085" style="stop-color:#03070B"/>
			<stop  offset="0.7557" style="stop-color:#010203"/>
			<stop  offset="1" style="stop-color:#000000"/>
		</radialGradient>
		<path opacity="0.9" fill="url(#SVGID_14_)" d="M143.284,15.651c-8.488,2.824-29.048,2.446-45.923-0.845
			C80.485,11.515,73.685,6.56,82.173,3.736c8.489-2.825,29.051-2.444,45.925,0.843C144.973,7.871,151.773,12.828,143.284,15.651z"/>
	</g>
	
		<radialGradient id="SVGID_15_" cx="6988.7695" cy="9.1043" r="56.1206" gradientTransform="matrix(-1 0 0 1 7099.1147 0)" gradientUnits="userSpaceOnUse">
		<stop  offset="0" style="stop-color:#798294"/>
		<stop  offset="0.0763" style="stop-color:#506C8F"/>
		<stop  offset="0.0832" style="stop-color:#486588"/>
		<stop  offset="0.1061" style="stop-color:#345275"/>
		<stop  offset="0.1321" style="stop-color:#264468"/>
		<stop  offset="0.1637" style="stop-color:#1E3C60"/>
		<stop  offset="0.2161" style="stop-color:#1B3A5E"/>
		<stop  offset="0.2822" style="stop-color:#152C48"/>
		<stop  offset="0.3795" style="stop-color:#0D1C2E"/>
		<stop  offset="0.487" style="stop-color:#071019"/>
		<stop  offset="0.6085" style="stop-color:#03070B"/>
		<stop  offset="0.7557" style="stop-color:#010203"/>
		<stop  offset="1" style="stop-color:#000000"/>
	</radialGradient>
	<path opacity="0.9" fill="url(#SVGID_15_)" d="M189.366,16.502L31.324,1.707C31.324,1.707,119.706,11.263,189.366,16.502z"/>
</g>
</svg>
