<?xml version="1.0" encoding="utf-8"?>
<!-- Generator: Adobe Illustrator 17.0.0, SVG Export Plug-In . SVG Version: 6.00 Build 0)  -->
<!DOCTYPE svg PUBLIC "-//W3C//DTD SVG 1.1//EN" "http://www.w3.org/Graphics/SVG/1.1/DTD/svg11.dtd">
<svg version="1.1" id="_x3C_Layer_x3E_" xmlns="http://www.w3.org/2000/svg" xmlns:xlink="http://www.w3.org/1999/xlink" x="0px"
	 y="0px" width="2760px" height="1840px" viewBox="0 0 2760 1840" enable-background="new 0 0 2760 1840" xml:space="preserve">
<g>
	<path fill="#BDD1FF" d="M2562.423,1480.947c-6.174,11.308-12.369,21.354-18.189,30.063c-0.172,0.258-0.345,0.516-0.517,0.773
		c-16.832,25.072-45.068,40.08-75.264,40.08c-161.8-0.01-720.254-0.029-894.316-0.087c0,0-913.156-2.59-1198.806-3.517
		c-55.899-0.182-106.369-33.274-129.013-84.385c-25.722-58.029-53.605-141.639-56.836-236.394
		c-5.143-150.339,51.769-328.741,277.802-477.56c194.231-127.885-12.158-212.298,142.3-354.674
		c177.494-163.596,371.21,17.388,568.596-56.797c34.869-13.095,69.864-34.172,104.886-66.519
		c19.73-18.19,41.342-34.085,64.474-47.831c3.547-2.112,7.131-4.168,10.754-6.185c13.86-7.675,28.217-14.615,43.014-20.867
		c9.941-4.177,20.054-8.058,30.378-11.614c16.364-5.649,33.188-10.524,50.354-14.644c24.375-5.859,49.485-10.218,75.073-13.172
		c11.174-1.3,22.435-2.304,33.771-3.068c220.537-14.826,468.736,68.516,596.822,190.322
		c25.78,24.538,143.045,151.448,50.623,325.893c-58.365,110.135,186.116,215.327,272.995,341.101
		c54.359,78.686,82.175,151.093,93.177,215.614C2623.312,1337.673,2593.106,1424.838,2562.423,1480.947z"/>
</g>
<g>
	<path fill="#283689" d="M1014.685,1227.787l-4.74-0.612c0.11-0.851,2.922-20.999,22.779-33.563
		c17.546-11.102,11.554-45.799,11.491-46.148l4.704-0.847c0.068,0.385,1.687,9.54,0.925,20.348
		c-1.035,14.701-6.072,25.313-14.565,30.687C1017.298,1209.026,1014.709,1227.601,1014.685,1227.787z"/>
</g>
<g>
	<path fill="#283689" d="M1045.261,1228.629c-0.119-0.217-11.645-21.862,9.149-35.017c17.172-10.864,1.93-44.596,1.773-44.936
		l4.343-1.995c0.175,0.378,4.272,9.376,6.029,20.046c2.425,14.726-0.89,25.42-9.591,30.924
		c-17.046,10.784-7.909,27.957-7.512,28.683L1045.261,1228.629z"/>
</g>
<g>
	<path fill="#8FA6EF" d="M2562.662,1532.077c-0.4,0.898-0.794,1.786-1.195,2.676c-0.803,1.778-1.596,3.526-2.398,5.248
		c-5.372,11.595-10.725,22.014-15.791,31.199c-0.172,0.315-0.344,0.622-0.516,0.937c-16.834,30.396-45.069,48.586-75.266,48.586
		c-64.186,0-190.8-0.009-331.072-0.019h-19.117c-76.45-0.009-156.256-0.009-231.692-0.028h-22.539
		c-121.347-0.01-229.082-0.029-289.895-0.058c0,0-305.8-1.052-618.826-2.15c-5.296-0.019-10.601-0.038-15.896-0.058
		c-91.123-0.325-182.428-0.65-266.554-0.956c-10.887-0.038-21.649-0.076-32.279-0.114c-108.031-0.383-202.012-0.736-265.251-0.985
		c-44.275-0.171-85.148-25.378-111.483-66.652c-1.386-2.17-2.733-4.387-4.033-6.651c-5.2-9.005-9.731-18.698-13.497-28.992
		c-25.722-70.353-53.605-171.711-56.835-286.577h2415.019C2622.107,1359.323,2592.925,1463.98,2562.662,1532.077z"/>
</g>
<g>
	<g>
		<polygon fill="#505ABA" points="2039.702,1468.902 681.718,1468.902 818.588,1329.481 1920.423,1329.481 		"/>
	</g>
	<g>
		<rect x="681.718" y="1468.902" fill="#2B478B" width="1357.984" height="17.815"/>
	</g>
	<g>
		<g>
			<g>
				<rect x="826.417" y="1358.72" fill="#2B478B" width="1082.343" height="4.755"/>
			</g>
		</g>
		<g>
			<g>
				<rect x="789.727" y="1387.849" fill="#2B478B" width="1148.061" height="4.756"/>
			</g>
		</g>
		<g>
			<g>
				<rect x="759.152" y="1420.043" fill="#2B478B" width="1209.209" height="4.755"/>
			</g>
		</g>
		<g>
			<rect x="831.904" y="1337.249" fill="#2B478B" width="48.935" height="14.676"/>
		</g>
		<g>
			<rect x="1206.738" y="1337.249" fill="#2B478B" width="48.936" height="14.676"/>
		</g>
		<g>
			<rect x="1285.439" y="1337.249" fill="#2B478B" width="48.936" height="14.676"/>
		</g>
		<g>
			<rect x="1494.653" y="1337.249" fill="#2B478B" width="48.935" height="14.676"/>
		</g>
		<g>
			<rect x="1567.421" y="1337.249" fill="#2B478B" width="48.936" height="14.676"/>
		</g>
		<g>
			<rect x="1646.123" y="1337.249" fill="#2B478B" width="48.935" height="14.676"/>
		</g>
	</g>
</g>
<g>
	<g>
		<path fill="#2B478B" d="M2544.492,1227.481h-9.608c-21.693-31.715-40.493-33.181-76.93-36.011
			c-11.21-0.864-23.923-1.854-38.804-3.857c-33.191-4.459-44.102-22.271-56.727-42.899c-5.725-9.344-11.623-19-20.253-28.759
			c-26.491-29.973-86.036-21.217-86.638-21.13l-1.228-7.915c2.618-0.4,64.468-9.531,93.864,23.734
			c9.093,10.297,15.469,20.705,21.093,29.886c12.501,20.429,21.543,35.184,50.966,39.142c14.654,1.967,27.242,2.943,38.34,3.808
			C2498.198,1186.561,2519.416,1188.201,2544.492,1227.481z"/>
	</g>
</g>
<g>
	<g>
		<path fill="#778DE8" d="M2224.848,1282.552h-179.727c-16.27,0-29.457-13.188-29.457-29.458v-179.725
			c0-16.271,13.188-29.459,29.457-29.459h179.727c16.269,0,29.458,13.188,29.458,29.459v179.725
			C2254.306,1269.363,2241.116,1282.552,2224.848,1282.552z"/>
	</g>
	<g>
		<g>
			<g>
				<path fill="#232323" d="M2216.789,1157.861c0,4.284-0.326,8.492-0.965,12.601c-0.15,1.002-0.326,1.992-0.526,2.981
					c-1.353,7.064-3.62,13.803-6.663,20.091c-0.289,0.601-0.589,1.202-0.902,1.79c-5.323,10.347-12.801,19.414-21.831,26.616
					c-0.489,0.39-0.977,0.777-1.478,1.153c-9.194,7.001-19.928,12.099-31.603,14.704h-0.013l-2.104,0.451h-0.013
					c-2.956,0.576-5.962,1.002-9.031,1.24c-1.001,0.088-1.991,0.162-2.993,0.188h-0.012c-1.253,0.075-2.519,0.101-3.783,0.101
					c-8.717,0-17.122-1.365-25.013-3.896c-1.228-0.389-2.443-0.802-3.646-1.265c-2.818-1.04-5.561-2.243-8.216-3.596
					c-0.603-0.301-1.19-0.601-1.779-0.914c-11.386-6.112-21.154-14.83-28.507-25.352c-0.363-0.514-0.727-1.026-1.077-1.552
					c-5.048-7.591-8.868-16.071-11.173-25.164c-0.313-1.24-0.602-2.493-0.852-3.758c-0.627-3.068-1.078-6.188-1.353-9.369
					c-0.063-0.789-0.126-1.577-0.164-2.367v-0.012c-0.087-1.554-0.138-3.106-0.138-4.673c0-8.518,1.303-16.721,3.709-24.449
					c0.213-0.677,0.438-1.364,0.675-2.041c3.833-11.248,10.059-21.394,18.05-29.836c0.438-0.45,0.864-0.901,1.315-1.34
					c8.079-8.166,17.874-14.629,28.808-18.825c0.626-0.251,1.252-0.476,1.891-0.702c8.593-3.056,17.837-4.722,27.469-4.722
					c4.609,0,9.131,0.376,13.527,1.115c0.777,0.125,1.554,0.263,2.33,0.426c0.551,0.1,1.102,0.213,1.652,0.338
					c1.078,0.237,2.154,0.488,3.22,0.776c11.824,3.068,22.62,8.743,31.727,16.346c0.488,0.4,0.965,0.802,1.44,1.228
					c9.632,8.417,17.26,19.051,22.106,31.101c0.263,0.613,0.501,1.227,0.727,1.854c2.004,5.322,3.458,10.922,4.31,16.709
					c0.162,1.077,0.3,2.167,0.4,3.257v0.013C2216.625,1151.987,2216.789,1154.905,2216.789,1157.861z"/>
			</g>
		</g>
		<g>
			<g>
				<g>
					<path fill="#1C3870" d="M2185.901,1221.94c-0.489,0.39-0.977,0.777-1.478,1.153l-10.91-12.162l-1.253-1.391l-22.42-25.014
						l-1.253-1.39l-25.313-28.22l-1.252-1.39l-24.988-27.869l-1.253-1.403l-20.391-22.721c0.438-0.45,0.864-0.901,1.315-1.34
						l20.466,22.821l1.253,1.391l24.987,27.868l1.252,1.391l25.314,28.22l1.253,1.39l22.433,25.014l1.24,1.39L2185.901,1221.94z"/>
				</g>
			</g>
			<g>
				<g>
					<path fill="#1C3870" d="M2208.635,1193.534c-0.289,0.601-0.589,1.202-0.902,1.79l-7.502-8.366l-1.254-1.391l-22.42-25
						l-1.252-1.391l-25.313-28.219l-1.253-1.392l-25.001-27.881l-1.239-1.39l-16.984-18.926c0.626-0.251,1.252-0.476,1.891-0.702
						l16.484,18.388l1.252,1.39l24.988,27.869l1.252,1.39l25.314,28.22l1.252,1.392l22.421,25.012l1.252,1.392L2208.635,1193.534z"
						/>
				</g>
			</g>
			<g>
				<g>
					<path fill="#1C3870" d="M2215.912,1145.838c0.162,1.077,0.3,2.167,0.4,3.257l-12.025-13.403l-1.239-1.39l-25.326-28.231
						l-1.239-1.391l-24.1-26.854c1.078,0.237,2.154,0.488,3.22,0.776l22.27,24.825l1.252,1.391l25.314,28.231l1.24,1.391
						L2215.912,1145.838z"/>
				</g>
			</g>
			<g>
				<g>
					<path fill="#1C3870" d="M2152.809,1237.798l-2.104,0.451h-0.013l-3.407-3.808l-1.239-1.391l-22.434-25.001l-1.252-1.39
						l-25.302-28.219l-1.252-1.404l-25-27.855l-1.253-1.402l-12.888-14.367c0.213-0.677,0.438-1.364,0.675-2.041l13.604,15.168
						l1.253,1.39l25,27.869l1.24,1.391l25.326,28.219l1.239,1.391l22.433,25.013l1.253,1.391L2152.809,1237.798z"/>
				</g>
			</g>
			<g>
				<g>
					<path fill="#1C3870" d="M2150.73,1077.487l-25.59,22.958l-1.403,1.24l-25.313,22.722l-1.391,1.252l-24.837,22.27l-1.391,1.253
						l-17.548,15.731c-0.063-0.789-0.126-1.577-0.164-2.367v-0.012l16.459-14.755l1.391-1.24l24.837-22.283l1.391-1.239
						l25.326-22.721l1.391-1.24l24.512-21.994C2149.178,1077.187,2149.954,1077.324,2150.73,1077.487z"/>
				</g>
			</g>
			<g>
				<g>
					<path fill="#1C3870" d="M2188.77,1096.175l-9.646,8.643l-1.402,1.253l-26.341,23.634l-1.39,1.254l-25.327,22.708l-1.39,1.252
						l-24.837,22.271l-1.379,1.253l-21.468,19.238l-1.391,1.253l-6.487,5.823c-0.363-0.514-0.727-1.026-1.077-1.552l6.325-5.662
						l1.391-1.253l21.455-19.252l1.391-1.239l24.825-22.27l1.39-1.253l25.326-22.709l1.391-1.252l26.354-23.635l1.39-1.253
						l9.457-8.479C2187.817,1095.348,2188.294,1095.749,2188.77,1096.175z"/>
				</g>
			</g>
			<g>
				<g>
					<path fill="#1C3870" d="M2211.603,1129.129l-5.924,5.311l-1.392,1.252l-26.34,23.624l-1.391,1.252l-25.325,22.708l-1.391,1.252
						l-24.838,22.271l-1.391,1.252l-21.455,19.239l-1.39,1.252l-2.769,2.48c-0.603-0.301-1.19-0.601-1.779-0.914l3.295-2.956
						l1.39-1.252l21.456-19.239l1.403-1.253l24.824-22.27l1.391-1.252l25.326-22.709l1.391-1.253l26.353-23.622l1.391-1.253
						l6.438-5.773C2211.139,1127.889,2211.377,1128.502,2211.603,1129.129z"/>
				</g>
			</g>
			<g>
				<g>
					<path fill="#1C3870" d="M2215.824,1170.462c-0.15,1.002-0.326,1.992-0.526,2.981l-13.678,12.275l-1.39,1.239l-25.326,22.721
						l-1.391,1.253l-24.825,22.27l-1.403,1.24l-5.624,5.048c-1.001,0.088-1.991,0.162-2.993,0.188l7.378-6.626l1.39-1.24
						l24.825-22.27l1.403-1.252l25.313-22.722l1.392-1.24L2215.824,1170.462z"/>
				</g>
			</g>
			<g>
				<g>
					<path fill="#1C3870" d="M2109.86,1235.882c-1.228-0.389-2.443-0.802-3.646-1.265l-5.447-6.076l-1.253-1.39l-25.314-28.219
						l-1.239-1.391l-17.498-19.502c-0.313-1.24-0.602-2.493-0.852-3.758l19.74,22.007l1.239,1.391l25.313,28.22l1.253,1.39
						L2109.86,1235.882z"/>
				</g>
			</g>
		</g>
	</g>
</g>
<g>
	<g>
		<path fill="#8C9DF4" d="M2224.848,1044.676h-179.727c-16.27,0-29.457-13.189-29.457-29.459V835.491
			c0-16.268,13.188-29.458,29.457-29.458h179.727c16.269,0,29.458,13.19,29.458,29.458v179.726
			C2254.306,1031.486,2241.116,1044.676,2224.848,1044.676z"/>
	</g>
	<g>
		<g>
			<g>
				<path fill="#232323" d="M2216.789,919.984c0,4.284-0.326,8.492-0.965,12.601c-0.15,1.002-0.326,1.992-0.526,2.981
					c-1.353,7.065-3.62,13.803-6.663,20.091c-0.289,0.601-0.589,1.202-0.902,1.79c-5.323,10.347-12.801,19.415-21.831,26.617
					c-0.489,0.389-0.977,0.776-1.478,1.152c-9.194,7.002-19.928,12.1-31.603,14.705h-0.013l-2.104,0.45h-0.013
					c-2.956,0.576-5.962,1.002-9.031,1.24c-1.001,0.088-1.991,0.163-2.993,0.188h-0.012c-1.253,0.075-2.519,0.101-3.783,0.101
					c-8.717,0-17.122-1.365-25.013-3.896c-1.228-0.388-2.443-0.802-3.646-1.265c-2.818-1.04-5.561-2.242-8.216-3.595
					c-0.603-0.301-1.19-0.602-1.779-0.915c-11.386-6.111-21.154-14.829-28.507-25.351c-0.363-0.515-0.727-1.027-1.077-1.554
					c-5.048-7.59-8.868-16.069-11.173-25.163c-0.313-1.24-0.602-2.492-0.852-3.758c-0.627-3.069-1.078-6.188-1.353-9.369
					c-0.063-0.788-0.126-1.577-0.164-2.367v-0.013c-0.087-1.552-0.138-3.106-0.138-4.672c0-8.516,1.303-16.721,3.709-24.449
					c0.213-0.676,0.438-1.365,0.675-2.041c3.833-11.248,10.059-21.393,18.05-29.835c0.438-0.451,0.864-0.902,1.315-1.341
					c8.079-8.167,17.874-14.629,28.808-18.826c0.626-0.249,1.252-0.475,1.891-0.7c8.593-3.057,17.837-4.723,27.469-4.723
					c4.609,0,9.131,0.376,13.527,1.115c0.777,0.125,1.554,0.264,2.33,0.425c0.551,0.101,1.102,0.214,1.652,0.339
					c1.078,0.238,2.154,0.489,3.22,0.777c11.824,3.068,22.62,8.741,31.727,16.345c0.488,0.4,0.965,0.802,1.44,1.228
					c9.632,8.418,17.26,19.052,22.106,31.1c0.263,0.613,0.501,1.228,0.727,1.854c2.004,5.323,3.458,10.922,4.31,16.709
					c0.162,1.076,0.3,2.167,0.4,3.256v0.013C2216.625,914.11,2216.789,917.029,2216.789,919.984z"/>
			</g>
		</g>
		<g>
			<g>
				<g>
					<path fill="#1C3870" d="M2185.901,984.065c-0.489,0.389-0.977,0.776-1.478,1.152l-10.91-12.162l-1.253-1.391l-22.42-25.013
						l-1.253-1.39l-25.313-28.221l-1.252-1.39l-24.988-27.869l-1.253-1.402l-20.391-22.721c0.438-0.451,0.864-0.902,1.315-1.341
						l20.466,22.821l1.253,1.39l24.987,27.87l1.252,1.39l25.314,28.219l1.253,1.391l22.433,25.013l1.24,1.391L2185.901,984.065z"/>
				</g>
			</g>
			<g>
				<g>
					<path fill="#1C3870" d="M2208.635,955.657c-0.289,0.601-0.589,1.202-0.902,1.79l-7.502-8.365l-1.254-1.392l-22.42-25.001
						l-1.252-1.39l-25.313-28.219l-1.253-1.391l-25.001-27.882l-1.239-1.39l-16.984-18.927c0.626-0.249,1.252-0.475,1.891-0.7
						l16.484,18.388l1.252,1.39l24.988,27.868l1.252,1.391l25.314,28.22l1.252,1.39l22.421,25.014l1.252,1.39L2208.635,955.657z"/>
				</g>
			</g>
			<g>
				<g>
					<path fill="#1C3870" d="M2215.912,907.961c0.162,1.076,0.3,2.167,0.4,3.256l-12.025-13.401l-1.239-1.391l-25.326-28.232
						l-1.239-1.39l-24.1-26.854c1.078,0.238,2.154,0.489,3.22,0.777l22.27,24.824l1.252,1.391l25.314,28.232l1.24,1.39
						L2215.912,907.961z"/>
				</g>
			</g>
			<g>
				<g>
					<path fill="#1C3870" d="M2152.809,999.922l-2.104,0.45h-0.013l-3.407-3.808l-1.239-1.391l-22.434-25l-1.252-1.391
						l-25.302-28.219l-1.252-1.403l-25-27.856l-1.253-1.403l-12.888-14.366c0.213-0.676,0.438-1.365,0.675-2.041l13.604,15.168
						l1.253,1.391l25,27.868l1.24,1.39l25.326,28.221l1.239,1.39l22.433,25.014l1.253,1.39L2152.809,999.922z"/>
				</g>
			</g>
			<g>
				<g>
					<path fill="#1C3870" d="M2150.73,839.609l-25.59,22.96l-1.403,1.239l-25.313,22.721l-1.391,1.253l-24.837,22.27l-1.391,1.252
						l-17.548,15.731c-0.063-0.788-0.126-1.577-0.164-2.367v-0.013l16.459-14.755l1.391-1.239l24.837-22.282l1.391-1.24
						l25.326-22.721l1.391-1.239l24.512-21.995C2149.178,839.31,2149.954,839.448,2150.73,839.609z"/>
				</g>
			</g>
			<g>
				<g>
					<path fill="#1C3870" d="M2188.77,858.298l-9.646,8.643l-1.402,1.252l-26.341,23.636l-1.39,1.253l-25.327,22.708l-1.39,1.252
						l-24.837,22.269l-1.379,1.254l-21.468,19.238l-1.391,1.252l-6.487,5.825c-0.363-0.515-0.727-1.027-1.077-1.554l6.325-5.661
						l1.391-1.252l21.455-19.252l1.391-1.24l24.825-22.269l1.39-1.252l25.326-22.709l1.391-1.253l26.354-23.635l1.39-1.253
						l9.457-8.479C2187.817,857.471,2188.294,857.872,2188.77,858.298z"/>
				</g>
			</g>
			<g>
				<g>
					<path fill="#1C3870" d="M2211.603,891.252l-5.924,5.31l-1.392,1.253l-26.34,23.622l-1.391,1.252l-25.325,22.709l-1.391,1.253
						l-24.838,22.269l-1.391,1.253l-21.455,19.238l-1.39,1.253l-2.769,2.481c-0.603-0.301-1.19-0.602-1.779-0.915l3.295-2.955
						l1.39-1.253l21.456-19.239l1.403-1.252l24.824-22.27l1.391-1.254l25.326-22.708l1.391-1.252l26.353-23.623l1.391-1.252
						l6.438-5.775C2211.139,890.012,2211.377,890.626,2211.603,891.252z"/>
				</g>
			</g>
			<g>
				<g>
					<path fill="#1C3870" d="M2215.824,932.585c-0.15,1.002-0.326,1.992-0.526,2.981l-13.678,12.274l-1.39,1.241l-25.326,22.72
						l-1.391,1.253l-24.825,22.27l-1.403,1.24l-5.624,5.048c-1.001,0.088-1.991,0.163-2.993,0.188l7.378-6.626l1.39-1.239
						l24.825-22.27l1.403-1.253l25.313-22.721l1.392-1.239L2215.824,932.585z"/>
				</g>
			</g>
			<g>
				<g>
					<path fill="#1C3870" d="M2109.86,998.005c-1.228-0.388-2.443-0.802-3.646-1.265l-5.447-6.075l-1.253-1.39l-25.314-28.221
						l-1.239-1.39l-17.498-19.502c-0.313-1.24-0.602-2.492-0.852-3.758l19.74,22.008l1.239,1.39l25.313,28.22l1.253,1.39
						L2109.86,998.005z"/>
				</g>
			</g>
		</g>
	</g>
</g>
<g>
	<g>
		<g>
			<g>
				<path fill="#1B376D" d="M2167.129,1434.789l126.593-113.898c5.16-4.642,19.243-7.831,31.456-7.125l162.407,9.398
					c12.212,0.707,17.93,5.043,12.771,9.686l-126.594,113.898c-5.158,4.642-19.241,7.831-31.453,7.125l-162.408-9.398
					C2167.688,1443.768,2161.97,1439.432,2167.129,1434.789z"/>
			</g>
			<g>
				<polygon fill="#1B376D" points="2502.254,1327.487 2502.254,1313.668 2168.372,1421.066 2165.49,1424.051 2165.23,1438.682 
					2312.743,1443.501 				"/>
			</g>
		</g>
		<g>
			<g>
				<path fill="#505ABA" d="M2322.867,1299.477l159.645,9.238c12.813,0.742,18.811,5.29,13.398,10.161l-118.999,107.065
					c-7.792,7.011-29.061,11.828-47.505,10.761l-143.046-8.277c-13.578-0.786-19.935-5.607-14.199-10.768l124.841-112.321
					C2301.244,1301.519,2312.824,1298.896,2322.867,1299.477z"/>
			</g>
			<g>
				<path fill="#2B478B" d="M2502.204,1313.689c-0.545-2.991-5.946-5.304-14.616-5.811l-162.41-9.396
					c-12.216-0.718-26.286,2.484-31.448,7.12l-126.594,113.891c-1.778,1.597-2.275,3.164-1.645,4.551v0.009
					c0.88,1.932,3.909,3.537,8.632,4.446h0.01c1.711,0.324,3.641,0.563,5.764,0.688l142.729,8.259h0.01l19.673,1.138
					c12.215,0.707,26.304-2.485,31.447-7.121l87.997-79.185l0.01-0.01l31.591-28.417l6.997-6.29c1.29-1.166,1.902-2.304,1.902-3.374
					C2502.252,1314.016,2502.232,1313.853,2502.204,1313.689z M2494.748,1317.227l-6.634,5.965l-0.009,0.01l-44.917,40.442
					l-0.066,0.057l-73.276,65.908l-0.01,0.009l-1.386,1.252l-0.01,0.01l-0.286,0.259c-3.854,3.47-14.367,5.841-23.477,5.313
					l-0.66-0.028h-0.048l-17.951-1.052l-143.751-8.315c-2.161-0.134-4.063-0.41-5.641-0.813c-5.057-1.262-6.834-3.766-3.899-6.424
					l0.286-0.238l0.02-0.02l1.386-1.252l124.903-112.391c3.852-3.45,14.375-5.83,23.494-5.305l162.393,9.387
					c7.752,0.449,11.996,2.858,10.734,5.697C2495.732,1316.204,2495.34,1316.701,2494.748,1317.227z"/>
			</g>
			<g>
				<path fill="#2B478B" d="M2177.39,1427.905l165.304,9.566c11.105,0.643,23.912-2.259,28.605-6.479l1.348-1.214l-201.027-11.634
					l-3.247,2.922C2164.729,1424.345,2168.766,1427.407,2177.39,1427.905z"/>
			</g>
		</g>
	</g>
	<g>
		<path fill="#1B376D" d="M2562.662,1532.077c-0.4,0.898-0.794,1.786-1.195,2.676c-0.803,1.778-1.596,3.526-2.398,5.248
			c-30.54-0.259-69.377,2.39-109.763,5.151c-104.456,7.131-212.45,14.501-246.928-18.992
			c-11.403-11.098-15.485-22.836-12.159-34.928c5.211-18.879,27.549-34.315,44.429-43.587c0-0.011,0.01-0.011,0.01-0.011
			c4.723-2.6,9.033-4.712,12.417-6.279h0.01c4.129-1.921,6.9-3.04,7.379-3.221l2.332,3.536l2.332,3.547
			c-0.123,0.047-3.087,1.241-7.627,3.402c-14.615,6.911-45.585,23.725-51.264,44.285c-2.686,9.77,0.604,19.013,10.114,28.256
			c31.065,30.177,141.046,22.673,238.067,16.048C2490.514,1534.332,2530.956,1531.579,2562.662,1532.077z"/>
	</g>
</g>
<g>
	<g>
		<rect x="761.64" y="449.149" fill="#4C4C4C" width="1198.142" height="703.377"/>
	</g>
	<g>
		<rect x="761.64" y="449.149" fill="#283689" width="1198.142" height="591.011"/>
	</g>
	<g>
		<path fill="#4C4C4C" d="M1517.514,1267.114v17.087H1165.71v-17.087c24.858,0,45.222-19.189,47.102-43.554
			c0.091-1.217,0.142-2.453,0.142-3.689v-67.345h257.318v67.345c0,1.236,0.051,2.473,0.141,3.689
			c0.895,11.569,5.961,21.982,13.689,29.722C1492.656,1261.827,1504.467,1267.114,1517.514,1267.114z"/>
	</g>
	<g opacity="0.7">
		<rect x="1212.953" y="1152.526" fill="#232323" width="257.318" height="14.072"/>
	</g>
	<g opacity="0.7">
		<path fill="#232323" d="M1517.514,1267.114H1165.71c24.858,0,45.222-19.189,47.102-43.554h257.601
			c0.895,11.569,5.961,21.982,13.689,29.722C1492.656,1261.827,1504.467,1267.114,1517.514,1267.114z"/>
	</g>
</g>
<g>
	<g>
		<path fill="#A8D29F" d="M503.461,1051.434c0,0-12.47-110.677,35.416-203.944c5.078-9.891,17.683-7.398,19.761,3.921
			c7.448,40.576,14.873,121.628-19.45,207.743C490.347,1181.694,503.461,1051.434,503.461,1051.434z"/>
	</g>
	<g>
		<path fill="#A8D29F" d="M560.65,1073.314c0,0,7.822-111.102,71.84-194.131c6.787-8.804,18.732-4.065,18.721,7.443
			c-0.04,41.253-7.448,122.308-56.829,200.764C524.114,1199.033,560.65,1073.314,560.65,1073.314z"/>
	</g>
	<g>
		<path fill="#82B378" d="M528.795,1051.187c0,0,0.226-111.377,58.43-198.58c6.171-9.246,18.41-5.333,19.184,6.148
			c2.774,41.16,0.915,122.531-42.999,204.173C500.922,1179.104,528.795,1051.187,528.795,1051.187z"/>
	</g>
	<g>
		<path fill="#82B378" d="M566.418,1056.813c0,0,21.979-84.131,83.043-138.641c6.474-5.779,14.958-0.426,13.295,8.403
			c-5.963,31.65-23.302,92.784-72.476,145.889C520.306,1148.032,566.418,1056.813,566.418,1056.813z"/>
	</g>
	<g>
		<path fill="#A8D29F" d="M484.251,1064.408c0,0,12.468-110.676-35.418-203.944c-5.077-9.89-17.683-7.398-19.761,3.921
			c-7.447,40.577-14.872,121.629,19.451,207.744C497.364,1194.67,484.251,1064.408,484.251,1064.408z"/>
	</g>
	<g>
		<path fill="#A8D29F" d="M427.061,1086.29c0,0-7.823-111.102-71.841-194.131c-6.788-8.804-18.731-4.065-18.72,7.442
			c0.04,41.254,7.447,122.309,56.829,200.765C463.598,1212.009,427.061,1086.29,427.061,1086.29z"/>
	</g>
	<g>
		<path fill="#82B378" d="M458.916,1064.161c0,0-0.226-111.376-58.43-198.579c-6.171-9.246-18.41-5.334-19.184,6.148
			c-2.775,41.161-0.915,122.532,42.999,204.175C486.79,1192.079,458.916,1064.161,458.916,1064.161z"/>
	</g>
	<g>
		<path fill="#82B378" d="M523.746,1070.153c0,0,21.002-109.379-19.52-206.075c-4.297-10.253-17.056-8.744-20.005,2.381
			c-10.565,39.877-24.245,120.111,3.308,208.626C526.735,1201.038,523.746,1070.153,523.746,1070.153z"/>
	</g>
	<g>
		<path fill="#82B378" d="M421.292,1069.788c0,0-21.979-84.13-83.042-138.64c-6.475-5.779-14.958-0.427-13.295,8.402
			c5.962,31.651,23.301,92.784,72.475,145.89C467.405,1161.008,421.292,1069.788,421.292,1069.788z"/>
	</g>
	<g>
		<path fill="#2B478B" d="M555.891,1253.102H435.824c-49.863,0-90.66-40.797-90.66-90.66V1052.96c0-2.615,2.14-4.757,4.756-4.757
			h296.632v114.238C646.552,1212.305,605.755,1253.102,555.891,1253.102z"/>
	</g>
</g>
<g>
	<rect x="777.172" y="464.714" fill="#505ABA" width="1164.715" height="553.158"/>
</g>
<g>
	<g opacity="0.1">
		<rect x="804.615" y="490.236" fill="#DDE7FE" width="249.733" height="249.733"/>
	</g>
	<g opacity="0.1">
		<rect x="804.615" y="767.462" fill="#DDE7FE" width="249.733" height="227.519"/>
	</g>
	<g opacity="0.1">
		<rect x="1102.727" y="796.097" fill="#DDE7FE" width="804.306" height="198.884"/>
	</g>
	<g>
		<rect x="1102.733" y="490.232" fill="#EBF2F9" width="514.102" height="281.35"/>
	</g>
	<g>
		<g>
			<path fill="#D5E5FB" d="M1592.394,566.998v204.584h-489.66V618.815h18.285v9.481h15.027v-5.506h13.926v-21.84h6.939v-10.19h1.052
				v10.19h16.65v-19.098h1.636v19.098h11.011v-0.268h-0.019v-2.419h0.019v-2.293h-0.019v-3.824h0.019v-2.438h-0.019v-3.813h0.019
				v-2.438h-0.019v-3.814h0.019v-2.64h-0.019v-3.822h0.019v-3.345h-0.019v-3.824h0.019v-2.523h3.278v-2.858h0.526v2.858h24.316
				v-2.858h0.517v2.858h4.444v19.968l3.117,0.01v-0.01h-0.019v-3.814h0.019v-2.64h-0.019v-3.822h0.019v-2.619h-0.019v-3.813h0.019
				v-0.019h29.479v0.019h5.075c0.258,0.096,0.517,0.2,0.784,0.295v21.795h21.545v28.618h17.406V564.53h3.795v-3.699h0.68v3.699
				h13.745v-3.699h0.678v3.699h19.472v-3.699h0.679v3.699h12.254v-3.699h0.679v3.699h5.037v49.399h19.242v-7.982l22.691,0.066
				v-12.951h4.569v-2.552h0.603v2.552h17.521v0.01h3.508v-2.562h0.603v2.562h4.225v25.741h27.022v9.481h15.017v-5.506h13.927V600.95
				h6.949v-10.19h1.042v10.19h16.651v-19.098h1.635v19.098h11.012v-0.268h-0.02v-2.419h0.02v-2.293h-0.02v-3.824h0.02v-2.438h-0.02
				v-3.813h0.02v-2.438h-0.02v-3.814h0.02v-2.64h-0.02v-3.822h0.02v-3.345h-0.02v-3.824h0.02v-2.523h3.288v-2.858h0.525v2.858
				h24.308v-2.858h0.526v2.858h4.435v19.968l3.078,0.01h0.048v-0.01h-0.029v-3.814h0.029v-2.64h-0.029v-3.822h0.029v-2.619h-0.029
				v-3.813h0.029v-0.019h29.479v0.019h5.066C1591.954,566.826,1592.164,566.921,1592.394,566.998z"/>
		</g>
		<g>
			<g>
				<rect x="1311.273" y="564.539" fill="#E2EEFD" width="43.495" height="8.372"/>
			</g>
			<g>
				<g>
					<rect x="1521.039" y="563.489" fill="#E2EEFD" width="20.294" height="5.085"/>
				</g>
				<g>
					<rect x="1521.039" y="571.316" fill="#E2EEFD" width="20.294" height="5.085"/>
				</g>
				<g>
					<rect x="1521.039" y="579.307" fill="#E2EEFD" width="20.294" height="5.086"/>
				</g>
				<g>
					<rect x="1521.039" y="587.426" fill="#E2EEFD" width="20.294" height="5.085"/>
				</g>
				<g>
					<rect x="1521.039" y="595.258" fill="#E2EEFD" width="20.294" height="5.085"/>
				</g>
			</g>
			<g>
				<g>
					<rect x="1521.039" y="603.879" fill="#E2EEFD" width="20.294" height="5.085"/>
				</g>
				<g>
					<rect x="1521.039" y="611.705" fill="#E2EEFD" width="20.294" height="5.085"/>
				</g>
				<g>
					<rect x="1521.039" y="619.695" fill="#E2EEFD" width="20.294" height="5.085"/>
				</g>
				<g>
					<rect x="1521.039" y="627.813" fill="#E2EEFD" width="20.294" height="5.085"/>
				</g>
				<g>
					<rect x="1521.039" y="635.646" fill="#E2EEFD" width="20.294" height="5.085"/>
				</g>
			</g>
			<g>
				<g>
					<rect x="1187.055" y="563.489" fill="#E2EEFD" width="21.747" height="5.085"/>
				</g>
				<g>
					<rect x="1187.055" y="571.316" fill="#E2EEFD" width="21.747" height="5.085"/>
				</g>
				<g>
					<rect x="1187.055" y="579.307" fill="#E2EEFD" width="21.747" height="5.086"/>
				</g>
				<g>
					<rect x="1187.055" y="587.426" fill="#E2EEFD" width="21.747" height="5.085"/>
				</g>
				<g>
					<rect x="1187.055" y="595.258" fill="#E2EEFD" width="21.747" height="5.085"/>
				</g>
			</g>
			<g>
				<g>
					<rect x="1187.055" y="603.879" fill="#E2EEFD" width="21.747" height="5.085"/>
				</g>
				<g>
					<rect x="1187.055" y="611.705" fill="#E2EEFD" width="21.747" height="5.085"/>
				</g>
				<g>
					<rect x="1187.055" y="619.695" fill="#E2EEFD" width="21.747" height="5.085"/>
				</g>
				<g>
					<rect x="1187.055" y="627.813" fill="#E2EEFD" width="21.747" height="5.085"/>
				</g>
				<g>
					<rect x="1187.055" y="635.646" fill="#E2EEFD" width="21.747" height="5.085"/>
				</g>
			</g>
			<g>
				<g>
					<rect x="1223.882" y="566.824" fill="#E2EEFD" width="24.717" height="5.085"/>
				</g>
				<g>
					<rect x="1223.882" y="574.651" fill="#E2EEFD" width="24.717" height="5.085"/>
				</g>
				<g>
					<rect x="1223.882" y="582.643" fill="#E2EEFD" width="24.717" height="5.085"/>
				</g>
				<g>
					<rect x="1223.882" y="590.761" fill="#E2EEFD" width="24.717" height="5.085"/>
				</g>
				<g>
					<rect x="1223.882" y="598.593" fill="#E2EEFD" width="24.717" height="5.085"/>
				</g>
			</g>
			<g>
				<g>
					<rect x="1223.882" y="606.758" fill="#E2EEFD" width="24.717" height="5.086"/>
				</g>
				<g>
					<rect x="1223.882" y="614.585" fill="#E2EEFD" width="24.717" height="5.085"/>
				</g>
				<g>
					<rect x="1223.882" y="622.576" fill="#E2EEFD" width="24.717" height="5.085"/>
				</g>
				<g>
					<rect x="1223.882" y="630.694" fill="#E2EEFD" width="24.717" height="5.085"/>
				</g>
				<g>
					<rect x="1223.882" y="638.526" fill="#E2EEFD" width="24.717" height="5.086"/>
				</g>
			</g>
		</g>
	</g>
	<g>
		<g>
			<path fill="#9DB0F4" d="M1548.507,545.886h-1.911l0.017-0.149l0.577-5.096c0.019-0.164,0.157-0.288,0.322-0.288
				c0.021,0,0.041,0.002,0.062,0.004c0.106,0.014,0.205,0.06,0.282,0.129c0.092,0.083,0.151,0.198,0.165,0.329L1548.507,545.886z"/>
		</g>
		<g>
			<path fill="#AFCDFB" d="M1546.78,544.729l-0.068,0.002l0.478-4.091c0.019-0.164,0.157-0.288,0.322-0.288
				c0.021,0,0.041,0.002,0.062,0.004c0.018,0.016,0.035,0.031,0.05,0.048c0.085,0.09,0.135,0.21,0.136,0.342l0.028,2.94
				C1547.792,544.251,1547.345,544.716,1546.78,544.729z"/>
		</g>
		<g>
			<rect x="1546.04" y="568.559" fill="#9DB0F4" width="3.684" height="162.643"/>
		</g>
		<g>
			<rect x="1546.04" y="568.559" fill="#AEC3FF" width="1.701" height="162.643"/>
		</g>
		<g>
			<rect x="1542.016" y="705.248" fill="#9DB0F4" width="11.731" height="43.033"/>
		</g>
		<g>
			<rect x="1542.016" y="705.248" fill="#AEC3FF" width="6.992" height="43.033"/>
		</g>
		<g>
			<path fill="#9DB0F4" d="M1554.292,548.341c0,2.01-3.018,3.638-6.74,3.638c-0.285,0-0.564-0.009-0.84-0.028
				c-3.326-0.222-5.902-1.754-5.902-3.609c0-1.856,2.576-3.387,5.902-3.609c0.275-0.019,0.555-0.028,0.84-0.028
				C1551.274,544.703,1554.292,546.332,1554.292,548.341z"/>
		</g>
		<g>
			<path fill="#AEC3FF" d="M1550.803,548.341c0,1.62-1.686,3.011-4.091,3.609c-3.326-0.222-5.902-1.754-5.902-3.609
				c0-1.856,2.576-3.387,5.902-3.609C1549.117,545.33,1550.803,546.721,1550.803,548.341z"/>
		</g>
		<g>
			<polygon fill="#AEC3FF" points="1553.733,571.766 1542.002,571.766 1537.865,551.849 1557.236,551.849 			"/>
		</g>
		<g>
			<rect x="1536.819" y="550.349" fill="#9DB0F4" width="21.463" height="1.91"/>
		</g>
		<g>
			<rect x="1536.819" y="550.349" fill="#AEC3FF" width="13.492" height="1.91"/>
		</g>
		<g>
			<path fill="#819DEA" d="M1543.938,705.248h7.496l-1.097-3.327c-0.098-0.295-0.373-0.494-0.685-0.494h-3.512
				c-0.381,0-0.724,0.229-0.868,0.582L1543.938,705.248z"/>
		</g>
		<g>
			<polygon fill="#C5D7FF" points="1539.252,552.82 1555.796,552.82 1552.564,570.722 1543.064,570.722 			"/>
		</g>
		<g>
			<polygon fill="#9DB0F4" points="1556.911,550.349 1538.19,550.349 1539.724,548.165 1555.456,548.165 			"/>
		</g>
		<g>
			<polygon fill="#AEC3FF" points="1552.301,550.349 1538.19,550.349 1539.724,548.165 1550.845,548.165 			"/>
		</g>
	</g>
	<g>
		<path fill="#A8D29F" d="M1221.002,748.46l-118.269-0.039v-28.877c0.382,0.182,0.765,0.363,1.146,0.555
			c16.136,8.221,14.022,19.165,34,15.15c19.978-4.005,36.457-5.688,45.403,0c8.947,5.698,15.515,3.432,26.641,3.394
			C1219.147,738.614,1220.725,745.955,1221.002,748.46z"/>
	</g>
	<g>
		<g>
			<polygon fill="#D36D1A" points="1245.545,715.375 1132.85,715.375 1127.642,688.888 1240.133,688.888 			"/>
		</g>
		<g>
			<polygon fill="#F49540" points="1247.471,715.375 1134.775,715.375 1129.566,688.888 1242.058,688.888 			"/>
		</g>
		<g>
			<path fill="#D36D1A" d="M1166.111,718.618h-30.796c-1.363,0-2.468-1.105-2.468-2.467v-0.776h33.264V718.618z"/>
		</g>
		<g>
			<rect x="1165.863" y="715.375" fill="#FFA255" width="102.352" height="3.243"/>
		</g>
		<g>
			<g>
				<path fill="#FFA255" d="M1139.576,718.618l-1.93,7.587c0,0.004,0,0.004,0,0.009l-5.711,22.475
					c-0.078,0.295-0.341,0.499-0.639,0.499c-0.581,0-1.02-0.53-0.906-1.097l5.095-26.216l0.635-3.257L1139.576,718.618
					L1139.576,718.618z"/>
			</g>
		</g>
		<g>
			<path fill="#D36D1A" d="M1137.646,726.205c0.186-3.882-2.161-4.33-2.161-4.33l0.635-3.257h3.456L1137.646,726.205z"/>
		</g>
		<g>
			<g>
				<path fill="#FFA255" d="M1164.022,718.618l-1.93,7.587c0,0.004,0,0.004,0,0.009l-5.712,22.475
					c-0.076,0.295-0.34,0.499-0.638,0.499c-0.581,0-1.02-0.53-0.906-1.097l5.096-26.216l0.634-3.257L1164.022,718.618
					L1164.022,718.618z"/>
			</g>
		</g>
		<g>
			<path fill="#D36D1A" d="M1162.093,726.205c0.186-3.882-2.16-4.33-2.16-4.33l0.634-3.257h3.456L1162.093,726.205z"/>
		</g>
		<g>
			<g>
				<path fill="#FFA255" d="M1258.875,718.618l1.93,7.587c0,0.004,0,0.004,0,0.009l5.712,22.475c0.076,0.295,0.34,0.499,0.638,0.499
					c0.58,0,1.02-0.53,0.906-1.097l-5.096-26.216l-0.634-3.257L1258.875,718.618L1258.875,718.618z"/>
			</g>
		</g>
		<g>
			<path fill="#D36D1A" d="M1260.805,726.205c-0.186-3.882,2.16-4.33,2.16-4.33l-0.634-3.257h-3.456L1260.805,726.205z"/>
		</g>
		<g>
			<g>
				<path fill="#FFA255" d="M1234.429,718.618l1.929,7.587c0,0.004,0,0.004,0,0.009l5.713,22.475
					c0.077,0.295,0.34,0.499,0.638,0.499c0.58,0,1.02-0.53,0.906-1.097l-5.096-26.216l-0.634-3.257L1234.429,718.618
					L1234.429,718.618z"/>
			</g>
		</g>
		<g>
			<path fill="#D36D1A" d="M1236.357,726.205c-0.185-3.882,2.161-4.33,2.161-4.33l-0.634-3.257h-3.456L1236.357,726.205z"/>
		</g>
	</g>
	<g>
		<path fill="#A8D29F" d="M1172.989,562.706c-2.905,1.682-6.328,2.753-10.046,3.001c-16.317,1.023-21.977,7.092-35.176,19.94
			c-7.093,6.882-16.871,8.373-25.034,8.612v-87.28c2.304,1.645,4.665,3.336,7.083,4.942c8.976,6.021,18.716,10.906,29.363,8.315
			c10.706-2.609,18.975-2.447,25.445-0.362c8.259,2.6,13.669,8.258,17.541,15.197
			C1187.518,544.602,1182.883,557.047,1172.989,562.706z"/>
	</g>
	<g>
		<circle fill="#F8FCFF" cx="1313.564" cy="531.854" r="7.312"/>
	</g>
	<g>
		<path fill="#F8FCFF" d="M1426.636,525.342c0,0,6.354-10.211,21.547-9.076c0,0,22.057-17.019,45.577-2.27
			c0,0,25.002-3.655,43.519,3.164c12.345,4.546,16.423,9.315,16.423,9.315L1426.636,525.342z"/>
	</g>
	<g opacity="0.5">
		<path fill="#F8FCFF" d="M1502.543,551.581c0,0,4.155-6.679,14.092-5.937c0,0,14.428-11.13,29.812-1.484
			c0,0,16.353-2.39,28.464,2.07c8.074,2.974,10.741,6.093,10.741,6.093L1502.543,551.581z"/>
	</g>
	<g opacity="0.5">
		<path fill="#F8FCFF" d="M1192.224,546.951c0,0,4.155-6.678,14.093-5.936c0,0,14.427-11.132,29.811-1.484
			c0,0,16.353-2.391,28.463,2.069c8.076,2.973,10.742,6.093,10.742,6.093L1192.224,546.951z"/>
	</g>
	<g>
		<rect x="1102.733" y="748.281" fill="#9DB0F4" width="514.102" height="23.301"/>
	</g>
	<g>
		<g>
			<path fill="#F99746" d="M1426.644,741.157c0,0-2.521-9.139,4.351-18.029c6.871-8.89,18.518-6.5,18.518-6.5
				s1.624,2.503-1.594,4.481c-3.216,1.98-14.428-1.984-17.252,17.487C1430.666,738.597,1429.316,742.623,1426.644,741.157z"/>
		</g>
		<g>
			<circle fill="#ED7D2B" cx="1343.609" cy="609.64" r="4.143"/>
		</g>
		<g>
			<circle fill="#9DB0F4" cx="1445.587" cy="735.729" r="5.814"/>
		</g>
		<g>
			<circle fill="#9DB0F4" cx="1319.821" cy="731.291" r="8.898"/>
		</g>
		<g>
			<g>
				
					<rect x="1326.604" y="613.267" transform="matrix(-0.9907 -0.1359 0.1359 -0.9907 2554.0264 1504.8486)" fill="#131375" width="3.551" height="103.957"/>
			</g>
		</g>
		<g>
			<g>
				<polygon fill="#ED7D2B" points="1325.066,617.043 1325.066,613.063 1343.173,609.102 1344.362,612.448 				"/>
			</g>
		</g>
		<g>
			<g>
				<path fill="#060633" d="M1320.112,748.181c-9.137,0-16.569-7.433-16.569-16.568c0-9.138,7.433-16.569,16.569-16.569
					s16.568,7.432,16.568,16.569C1336.681,740.748,1329.248,748.181,1320.112,748.181z M1320.112,718.394
					c-7.288,0-13.218,5.93-13.218,13.219c0,7.288,5.93,13.218,13.218,13.218s13.218-5.93,13.218-13.218
					C1333.33,724.323,1327.4,718.394,1320.112,718.394z"/>
			</g>
		</g>
		<g>
			<g>
				<path fill="#060633" d="M1445.588,747.837c-6.678,0-12.109-5.432-12.109-12.108c0-6.677,5.432-12.109,12.109-12.109
					c6.676,0,12.108,5.433,12.108,12.109S1452.264,747.837,1445.588,747.837z M1445.588,726.282c-5.208,0-9.446,4.237-9.446,9.446
					c0,5.207,4.238,9.444,9.446,9.444s9.445-4.237,9.445-9.444C1455.033,730.519,1450.796,726.282,1445.588,726.282z"/>
			</g>
		</g>
		<g>
			<path fill="#131375" d="M1427.716,742.668h-82.243c-1.47,0-2.672-1.202-2.672-2.672v-1.277c0-1.47,1.202-2.672,2.672-2.672
				h82.243c1.469,0,2.671,1.202,2.671,2.672v1.277C1430.387,741.466,1429.185,742.668,1427.716,742.668z"/>
		</g>
		<g>
			<g>
				<path fill="#131375" d="M1428.674,742.706c-0.558,0-1.077-0.354-1.264-0.911c-0.232-0.697,0.145-1.452,0.842-1.685l16.914-5.645
					c0.696-0.234,1.451,0.144,1.685,0.841c0.233,0.697-0.144,1.451-0.842,1.685l-16.914,5.644
					C1428.955,742.683,1428.813,742.706,1428.674,742.706z"/>
			</g>
		</g>
		<g>
			<polygon fill="#131375" points="1324.695,690.838 1353.043,736.188 1360.241,736.188 1326.201,682.41 			"/>
		</g>
		<g>
			<path fill="#060633" d="M1326.313,717.063l-2.601-0.792l-2.714,8.909c-0.9,2.952-3.739,4.875-6.814,4.615l-8.606-0.726
				l-0.229,2.71l8.634,0.727c3.576,0.301,6.807,2.252,8.738,5.275l4.57,7.151l2.289-1.464l-4.412-6.907
				c-2.062-3.226-2.605-7.192-1.49-10.854L1326.313,717.063z"/>
		</g>
		<g>
			<path fill="#060633" d="M1449.486,726.451l-1.689-0.515l-1.764,5.789c-0.585,1.919-2.43,3.169-4.428,3l-5.593-0.472l-0.147,1.761
				l5.609,0.473c2.323,0.195,4.423,1.463,5.678,3.428l2.969,4.647l1.489-0.952l-2.868-4.486c-1.339-2.097-1.692-4.674-0.968-7.053
				L1449.486,726.451z"/>
		</g>
		<g>
			<circle fill="#F99746" cx="1445.345" cy="735.512" r="1.332"/>
		</g>
		<g>
			<circle fill="#F99746" cx="1319.822" cy="731.291" r="1.332"/>
		</g>
		<g>
			<path fill="#F99746" d="M1309.67,714.118c0,0,7.766-5.437,18.444-1.941c10.679,3.495,12.329,15.271,12.329,15.271
				s-1.814,2.368-4.756,0c-2.943-2.369-2.964-14.261-22.258-10.398C1313.43,717.05,1309.185,717.127,1309.67,714.118z"/>
		</g>
		<g>
			<path fill="#829CE8" d="M1383.49,510.64c0,0-13.411,21.565-13.411,27.417c0,5.853,4.271,12.584,4.271,12.584l13.568-11.266
				l6.753-12.114L1383.49,510.64z"/>
		</g>
		<g>
			<path fill="#ED975D" d="M1394.086,542.269c0,0-4.526,8.159-12.616,6.706c0,0-2.384-3.593-2.973-6.471
				c-0.073-0.353-0.145-0.696-0.214-1.022c-0.678-3.237-1.145-5.037-1.145-5.037s0.003-0.001,0.008-0.003
				c0.313-0.21,10.561-6.974,10.626-6.593C1389.305,538.665,1394.086,542.269,1394.086,542.269z"/>
		</g>
		<g>
			<path fill="#FFB27D" d="M1373.617,536.944c0,0,12.442,4.165,14.918-3.623c2.475-7.789,5.747-12.497-2.094-15.486
				c-7.84-2.989-10.335-0.509-11.793,1.89C1373.189,522.123,1370.444,535.66,1373.617,536.944z"/>
		</g>
		<g>
			<path fill="#A9453D" d="M1359.505,736.184h20.503c0.196-0.039,0.346-0.082,0.436-0.127c1.369-0.685,0.94-5.926,0.775-7.545
				c-0.032-0.3-0.055-0.477-0.055-0.477s-7.209-5.765-8.2-1.351c-0.032,0.138-0.068,0.273-0.106,0.406v0.002
				c-1.252,4.131-6.846,6.007-10.078,6.53C1360.31,734.025,1359.67,735.464,1359.505,736.184z"/>
		</g>
		<g>
			<path fill="#A9453D" d="M1399.639,736.184h20.503c0.196-0.039,0.345-0.082,0.436-0.127c1.368-0.685,0.939-5.926,0.775-7.545
				c-0.031-0.3-0.054-0.477-0.054-0.477s-7.209-5.765-8.202-1.351c-0.031,0.138-0.067,0.273-0.106,0.406v0.002
				c-1.251,4.131-6.846,6.007-10.076,6.53C1400.444,734.025,1399.804,735.464,1399.639,736.184z"/>
		</g>
		<g>
			<path fill="#F99746" d="M1363.638,617.952c0,0,1.095,13.66,2.382,30.081c1.749,22.306,3.853,49.705,4.06,54.896
				c0.36,9.013,2.778,24.162,2.778,24.162s1.457,2.389,8.307,0.944c0,0,7.096-20.275,8.84-42.051
				c0.027-0.358,0.055-0.718,0.082-1.077c1.621-22.168,4.144-68.848,4.144-68.848L1363.638,617.952z"/>
		</g>
		<g>
			<path fill="#ED7D2B" d="M1363.638,617.952c0,0,1.095,13.66,2.382,30.081l23.984,37.951c0.027-0.358,0.055-0.718,0.082-1.077
				c1.621-22.168,4.144-68.848,4.144-68.848L1363.638,617.952z"/>
		</g>
		<g>
			<path fill="#F99746" d="M1368.639,619.574c0,0,13.445,51.495,26.422,74.744s17.611,33.6,17.611,33.6s7.951,2.145,8.627,0.117
				c0,0-6.797-55.336-12.064-68.276c-2.728-6.704-4.001-27.297-4.271-33.785c-0.271-6.487-4.831-15.32-4.831-15.32L1368.639,619.574
				z"/>
		</g>
		<g>
			<path fill="#9DB0F4" d="M1364.208,639.639c24.95,12.345,52.265,8.349,52.21,7.499c-0.045-0.929-10.396-55.977-13.979-72.033
				c-3.337-14.95-7.849-28.05-12.025-31.042c-0.549-0.376-3.835,1.313-6.857,2.879c-2.788,1.445-5.605,1.655-8.279,1.172
				c0,0-1.356,1.803-2.155,3.756c-1.676,4.095-10.438,32.057-10.555,36.896c-0.003,0.288-0.011,0.576-0.016,0.863
				c-0.031,1.4-0.056,2.805-0.077,4.2C1362.45,595.422,1363.93,639.501,1364.208,639.639z"/>
		</g>
		<g>
			<path fill="#7A96E5" d="M1363.276,618.641c24.54-13.762,22.109-45.443,22.109-45.443l-22.912,20.631
				c-0.023,1.594-0.038,3.178-0.043,4.743c-0.001,1.175,0.004,2.342,0.017,3.486l0.004,0.153c-0.031,0.426-0.021,0.891-0.012,1.316
				C1362.452,605.445,1363.252,616.894,1363.276,618.641z"/>
		</g>
		<g>
			<path fill="#FFB27D" d="M1338.533,609.194c-1.22-2.113-0.266-3.029-0.266-3.029s20.266-14.886,21.866-16.402
				c1.6-1.518,9.552-26.221,9.552-26.221s2.784-10.011,8.609-10.944c5.062-0.812,8.463,1.785,10.649,4.774
				c2.604,3.562,2.723,8.367,0.355,12.091c-5.315,8.358-16.027,24.945-19.093,27.739c-6.822,6.223-28.808,13.707-28.808,13.707
				S1339.491,610.854,1338.533,609.194z"/>
		</g>
		<g>
			<path fill="#233862" d="M1387.899,535.446c0.163,0.128,2.822,1.221,8.96-8.626c0.963-1.545,1.842-5.001,0.23-8.273
				c-1.609-3.273-8.11-6.331-13.6-7.907c-5.489-1.576-7.121,1.444-8.729,4.482c-1.688,3.189-5.93,5.551-5.93,5.551
				c4.57,3.137,10.729-0.177,12.681,0.642c1.952,0.819,2.369,4.054,2.427,5.084c0.057,1.029,0.211,1.894,2.822,1.221
				c2.612-0.673,0.813,3.689,0.329,4.509C1387.091,532.128,1386.535,534.384,1387.899,535.446z"/>
		</g>
		<g>
			<path fill="#9DB0F4" d="M1383.49,510.64c0,0,6.859,11.729,7.08,16.738c0.219,5.012-15.294,20.735-15.294,20.735
				s13.301,3.491,18.775,0c0,0,12.659-17.635,12.659-20.853C1406.711,524.041,1399.297,510.83,1383.49,510.64z"/>
		</g>
		<g>
			<path fill="#7A96E5" d="M1371.383,617.473c0,0,12.043,1.966,19.607,0.865l-0.17,12.102l-9.634,3.689l-9.804-5.437
				L1371.383,617.473L1371.383,617.473z"/>
		</g>
		<g>
			<path fill="#FFB27D" d="M1338.221,606.165c0,0-7.765,0.394-9.318,1.849c-1.553,1.458-4.611,4.225-2.302,4.714l5.574-1.219
				c2.847,0.672,3.878,2.216,5.69,1.254s3.797-2.019,3.797-2.019L1338.221,606.165z"/>
		</g>
		<g>
			<circle fill="#F99746" cx="1323.766" cy="614.499" r="4.142"/>
		</g>
		<g>
			<path fill="#F99746" d="M1431.899,585.335c-0.039,0.606-0.113,1.138-0.229,1.576c-1.626,6.22-22.675,10.915-25.032,8.665
				c-0.442-0.421-0.897-1.031-1.365-1.799c-5.992-9.852-13.593-45.727-10.6-43.602c0,0,5.593-1.746,10.186-2.183l0.811-0.064
				l0.029-0.002c1.454-0.086,2.757-0.012,3.68,0.331c3.914,1.452,7.039,11.673,7.039,11.673s3.225-0.458,6.099-0.106
				c0.354,0.043,0.703,0.099,1.04,0.169c0.002,0,0.002,0,0.002,0c0.88,0.184,1.68,0.468,2.276,0.894
				C1428.292,562.643,1432.323,578.604,1431.899,585.335z"/>
		</g>
		<g>
			<path fill="#F99746" d="M1397.324,549.665c0,0-7.218-6.896-19.3-4.438l-2.748,2.887c0,0,12.127-2.916,18.81,3.463
				L1397.324,549.665z"/>
		</g>
		<g>
			<path fill="#F99746" d="M1376.339,582.511c0,0,7.216,12.814,26.916,6.451l2.019,4.815c0,0-23.423,6.661-31.332-6.237
				L1376.339,582.511z"/>
		</g>
		<g>
			<path fill="#9DB0F4" d="M1378.934,550.641c0,0-5-0.57-6.846,4.09c-1.315,3.327-4.26,18.969-10.908,30.373
				c-2.663,4.569-12.814,13.491-17.036,16.732c0,0,1.536,4.953,4.846,6.271c0,0,16.01,1.625,26.526-10.349
				c3.009-3.398,20.904-32.555,17.215-38.573C1389.042,553.164,1378.934,550.641,1378.934,550.641z"/>
		</g>
		<g>
			<g>
				<path fill="#ED7D2B" d="M1405.699,547.928c-0.716,0.689-2.114,2.523-1.649,6.017c0.624,4.687,2.13,8.038,2.146,8.072
					l-0.523,0.243c-0.016-0.034-1.555-3.459-2.19-8.237c-0.415-3.117,0.569-5.028,1.378-6.029L1405.699,547.928z"/>
			</g>
		</g>
		<g>
			<g>
				<path fill="#ED7D2B" d="M1426.057,585.482l-0.547,0.174c-0.239-0.766-5.83-18.802-5.445-22.128
					c0.242-2.095,1.492-3.175,2.452-3.703c0.354,0.043,0.703,0.099,1.04,0.169c-0.672,0.21-2.624,1.035-2.922,3.603
					C1420.263,566.799,1426,585.294,1426.057,585.482z"/>
			</g>
		</g>
		<g>
			<path fill="#ED7D2B" d="M1400.96,577.535l4.974,14.1c0,0,6.89,0.206,11.1-2.674l-4.593-14.488
				C1412.44,574.474,1408.613,577.408,1400.96,577.535z"/>
		</g>
		<g>
			<path fill="#ED7D2B" d="M1431.899,585.335c-0.039,0.606-0.113,1.138-0.229,1.576c-1.626,6.22-22.675,10.915-25.032,8.665
				c-0.442-0.421-0.897-1.031-1.365-1.799C1405.464,593.771,1417.412,593.356,1431.899,585.335z"/>
		</g>
		<g>
			<path fill="#EF873A" d="M1400.96,577.535l1.461,4.142l6.575,0.45l4.725-3.615l-1.28-4.039
				C1412.44,574.474,1405.025,576.005,1400.96,577.535z"/>
		</g>
		<g>
			<circle fill="#131375" cx="1408.422" cy="580.884" r="0.414"/>
		</g>
	</g>
	<g>
		<rect x="1139.428" y="820.674" fill="#9DB0F4" width="616.637" height="15.506"/>
	</g>
	<g>
		<rect x="1139.428" y="851.972" fill="#9DB0F4" width="616.637" height="15.505"/>
	</g>
	<g>
		<rect x="1414.146" y="883.269" fill="#9DB0F4" width="341.919" height="15.505"/>
	</g>
	<g>
		<rect x="1344.237" y="914.564" fill="#9DB0F4" width="265.165" height="15.506"/>
	</g>
	<g>
		<rect x="1414.146" y="945.861" fill="#9DB0F4" width="341.919" height="15.506"/>
	</g>
	<g>
		<rect x="822.582" y="694.995" fill="#9DB0F4" width="163.301" height="7.745"/>
	</g>
	<g>
		<rect x="1001.63" y="694.995" fill="#9DB0F4" width="17.968" height="17.967"/>
	</g>
	<g>
		<rect x="883.646" y="694.995" fill="#F77D48" width="74.92" height="7.745"/>
	</g>
	<g>
		<rect x="822.582" y="652.496" fill="#9DB0F4" width="163.301" height="7.744"/>
	</g>
	<g>
		<rect x="1001.63" y="652.496" fill="#9DB0F4" width="17.968" height="17.967"/>
	</g>
	<g>
		<rect x="843.956" y="652.496" fill="#F77D48" width="52.182" height="7.744"/>
	</g>
	<g>
		<rect x="822.582" y="609.996" fill="#9DB0F4" width="163.301" height="7.743"/>
	</g>
	<g>
		<rect x="1001.63" y="609.996" fill="#7A96E5" width="17.968" height="17.966"/>
	</g>
	<g>
		<rect x="903.391" y="609.996" fill="#7A96E5" width="52.182" height="7.743"/>
	</g>
	<g>
		<rect x="822.582" y="567.495" fill="#9DB0F4" width="163.301" height="7.744"/>
	</g>
	<g>
		<rect x="1001.63" y="567.495" fill="#7A96E5" width="17.968" height="17.966"/>
	</g>
	<g>
		<rect x="843.956" y="567.495" fill="#7A96E5" width="79.379" height="7.744"/>
	</g>
	<g>
		<rect x="822.582" y="524.995" fill="#9DB0F4" width="163.301" height="7.744"/>
	</g>
	<g>
		<rect x="1001.63" y="524.995" fill="#F77D48" width="17.968" height="17.967"/>
	</g>
	<g>
		<rect x="899.616" y="524.995" fill="#F77D48" width="69.601" height="7.744"/>
	</g>
	<g>
		<g>
			<rect x="896.138" y="791.615" fill="#9DB0F4" width="15.858" height="15.858"/>
		</g>
		<g>
			<rect x="924.481" y="791.615" fill="#9DB0F4" width="15.858" height="15.858"/>
		</g>
		<g>
			<rect x="951.293" y="793.658" fill="#9DB0F4" width="82.708" height="5.886"/>
		</g>
		<g>
			<polygon fill="#9DB0F4" points="872.455,789.631 885.466,799.544 872.455,807.133 			"/>
		</g>
	</g>
	<g>
		<rect x="896.138" y="821.962" fill="#7A96E5" width="15.858" height="15.858"/>
	</g>
	<g>
		<rect x="924.481" y="821.962" fill="#9DB0F4" width="15.858" height="15.858"/>
	</g>
	<g>
		<rect x="951.293" y="824.006" fill="#9DB0F4" width="82.708" height="5.885"/>
	</g>
	<g>
		<polygon fill="#9DB0F4" points="872.455,819.977 885.466,829.891 872.455,837.481 		"/>
	</g>
	<g>
		<rect x="896.138" y="852.309" fill="#F77D48" width="15.858" height="15.858"/>
	</g>
	<g>
		<rect x="924.481" y="852.309" fill="#9DB0F4" width="15.858" height="15.858"/>
	</g>
	<g>
		<rect x="951.293" y="854.353" fill="#9DB0F4" width="82.708" height="5.885"/>
	</g>
	<g>
		<polygon fill="#9DB0F4" points="872.455,850.325 885.466,860.237 872.455,867.828 		"/>
	</g>
	<g>
		<rect x="896.138" y="882.655" fill="#F77D48" width="15.858" height="15.858"/>
	</g>
	<g>
		<rect x="924.481" y="882.655" fill="#9DB0F4" width="15.858" height="15.858"/>
	</g>
	<g>
		<rect x="951.293" y="884.698" fill="#9DB0F4" width="82.708" height="5.887"/>
	</g>
	<g>
		<polygon fill="#9DB0F4" points="872.455,880.672 885.466,890.585 872.455,898.174 		"/>
	</g>
	<g>
		<rect x="896.138" y="913.003" fill="#7A96E5" width="15.858" height="15.858"/>
	</g>
	<g>
		<rect x="924.481" y="913.003" fill="#9DB0F4" width="15.858" height="15.858"/>
	</g>
	<g>
		<rect x="951.293" y="915.046" fill="#9DB0F4" width="82.708" height="5.886"/>
	</g>
	<g>
		<polygon fill="#9DB0F4" points="872.455,911.019 885.466,920.932 872.455,928.521 		"/>
	</g>
	<g>
		<rect x="896.138" y="943.35" fill="#7A96E5" width="15.858" height="15.858"/>
	</g>
	<g>
		<rect x="924.481" y="943.35" fill="#9DB0F4" width="15.858" height="15.858"/>
	</g>
	<g>
		<rect x="951.293" y="945.394" fill="#9DB0F4" width="82.708" height="5.885"/>
	</g>
	<g>
		<polygon fill="#9DB0F4" points="872.455,941.366 885.466,951.278 872.455,958.868 		"/>
	</g>
	<g opacity="0.5">
		<g>
			<path fill="#DDE7FE" d="M820.11,798.382c0,0,4.188-5.404,9.855-5.404c5.789,0,9.363,5.404,9.363,5.404s-3.019,5.405-9.363,5.405
				C823.282,803.787,820.11,798.382,820.11,798.382z"/>
		</g>
		<g>
			<circle fill="#15156D" cx="829.719" cy="798.382" r="3.743"/>
		</g>
		<g>
			<circle fill="#DDE7FE" cx="829.719" cy="798.382" r="2.286"/>
		</g>
	</g>
	<g opacity="0.5">
		<g>
			<path fill="#DDE7FE" d="M820.11,828.729c0,0,4.188-5.405,9.855-5.405c5.789,0,9.363,5.405,9.363,5.405s-3.019,5.405-9.363,5.405
				C823.282,834.135,820.11,828.729,820.11,828.729z"/>
		</g>
		<g>
			<circle fill="#15156D" cx="829.719" cy="828.729" r="3.743"/>
		</g>
		<g>
			<circle fill="#DDE7FE" cx="829.719" cy="828.729" r="2.286"/>
		</g>
	</g>
	<g opacity="0.5">
		<g>
			<path fill="#DDE7FE" d="M820.11,859.076c0,0,4.188-5.405,9.855-5.405c5.789,0,9.363,5.405,9.363,5.405s-3.019,5.406-9.363,5.406
				C823.282,864.482,820.11,859.076,820.11,859.076z"/>
		</g>
		<g>
			<circle fill="#15156D" cx="829.719" cy="859.076" r="3.743"/>
		</g>
		<g>
			<circle fill="#DDE7FE" cx="829.719" cy="859.076" r="2.286"/>
		</g>
	</g>
	<g opacity="0.5">
		<g>
			<path fill="#DDE7FE" d="M820.11,889.423c0,0,4.188-5.405,9.855-5.405c5.789,0,9.363,5.405,9.363,5.405s-3.019,5.405-9.363,5.405
				C823.282,894.828,820.11,889.423,820.11,889.423z"/>
		</g>
		<g>
			<circle fill="#15156D" cx="829.719" cy="889.423" r="3.743"/>
		</g>
		<g>
			<circle fill="#DDE7FE" cx="829.719" cy="889.423" r="2.286"/>
		</g>
	</g>
	<g opacity="0.5">
		<g>
			<path fill="#DDE7FE" d="M820.11,919.769c0,0,4.188-5.404,9.855-5.404c5.789,0,9.363,5.404,9.363,5.404s-3.019,5.405-9.363,5.405
				C823.282,925.175,820.11,919.769,820.11,919.769z"/>
		</g>
		<g>
			<circle fill="#15156D" cx="829.719" cy="919.769" r="3.743"/>
		</g>
		<g>
			<circle fill="#DDE7FE" cx="829.719" cy="919.769" r="2.286"/>
		</g>
	</g>
	<g opacity="0.5">
		<g>
			<path fill="#DDE7FE" d="M820.11,950.117c0,0,4.188-5.405,9.855-5.405c5.789,0,9.363,5.405,9.363,5.405s-3.019,5.405-9.363,5.405
				C823.282,955.523,820.11,950.117,820.11,950.117z"/>
		</g>
		<g>
			<circle fill="#15156D" cx="829.719" cy="950.117" r="3.743"/>
		</g>
		<g>
			<circle fill="#DDE7FE" cx="829.719" cy="950.117" r="2.286"/>
		</g>
	</g>
	<g>
		<rect x="1521.117" y="914.564" fill="#F99746" width="234.947" height="15.506"/>
	</g>
	<g>
		<rect x="1562.637" y="883.269" fill="#F99746" width="136.507" height="15.505"/>
	</g>
	<g>
		<rect x="1547.552" y="820.674" fill="#F99746" width="157.983" height="15.506"/>
	</g>
	<g>
		<rect x="1595.591" y="851.972" fill="#7A96E5" width="136.507" height="15.505"/>
	</g>
	<g>
		<g>
			<path fill="#15156D" d="M1220.861,591.285c-32.28-41.241-68.204-42.69-68.563-42.699l0.025-0.929
				c0.363,0.009,36.723,1.474,69.27,43.055L1220.861,591.285z"/>
		</g>
		<g>
			<circle fill="#F77D48" cx="1151.959" cy="548.12" r="3.833"/>
		</g>
		<g>
			<circle fill="#F77D48" cx="1221.227" cy="590.613" r="3.833"/>
		</g>
	</g>
	<g>
		<g>
			<path fill="#15156D" d="M1230.519,540.151l-0.708-0.603c0.236-0.277,24.238-27.682,76.982-26.943l-0.013,0.929
				C1254.421,512.824,1230.752,539.878,1230.519,540.151z"/>
		</g>
		<g>
			<circle fill="#F77D48" cx="1229.945" cy="540.124" r="3.833"/>
		</g>
		<g>
			<circle fill="#F77D48" cx="1306.486" cy="512.827" r="3.833"/>
		</g>
	</g>
	<g>
		<g>
			<path fill="#15156D" d="M1475.049,540.049l-0.838-0.717c0.266-0.31,27.388-31.058,90.854-26.978l-0.07,1.1
				C1502.067,509.415,1475.311,539.742,1475.049,540.049z"/>
		</g>
		<g>
			
				<ellipse transform="matrix(0.7788 0.6273 -0.6273 0.7788 664.8532 -805.3828)" fill="#F77D48" cx="1474.327" cy="539.962" rx="4.793" ry="4.314"/>
		</g>
		<g>
			
				<ellipse transform="matrix(0.7789 0.6272 -0.6272 0.7789 667.527 -867.9457)" fill="#F77D48" cx="1564.644" cy="512.683" rx="4.793" ry="4.315"/>
		</g>
	</g>
	<g>
		<rect x="1366.036" y="554.419" fill="#15156D" width="64.434" height="0.929"/>
	</g>
	<g>
		<circle fill="#FA7267" cx="1366.038" cy="554.882" r="3.833"/>
	</g>
	<g>
		<circle fill="#FA7267" cx="1430.47" cy="554.882" r="3.834"/>
	</g>
	<g>
		<g>
			
				<rect x="1494.324" y="801.893" transform="matrix(0.7072 0.7071 -0.7071 0.7072 1009.2333 -823.668)" fill="#F77D48" width="9.295" height="9.295"/>
		</g>
	</g>
	<g>
		<path fill="#15156D" d="M1329.773,671.479c-36.685,0-75.379-6.441-106.754-13.496c-56.895-12.794-102.632-30.302-103.087-30.477
			l0.335-0.868c0.454,0.176,46.138,17.662,102.969,30.44c52.414,11.786,125.295,21.863,174.852,2.942
			c49.762-19,102.445-16.255,137.876-10.605c38.382,6.117,65.361,16.869,65.63,16.977l-0.348,0.862
			c-0.268-0.107-27.168-10.826-65.451-16.927c-35.316-5.626-87.813-8.36-137.376,10.561
			C1378.365,668.546,1354.527,671.479,1329.773,671.479z"/>
	</g>
	<g>
		<circle fill="#17152B" cx="1408.736" cy="657.044" r="3.833"/>
	</g>
	<g>
		<circle fill="#17152B" cx="1302.419" cy="670.521" r="3.833"/>
	</g>
	<g>
		<g>
			<path fill="#15156D" d="M1323.227,764.38c-7.905,0-16.747-1.364-25.574-5.42l0.389-0.845c26.432,12.15,53.038-0.209,53.305-0.335
				l0.398,0.839C1351.563,758.705,1339.348,764.38,1323.227,764.38z"/>
		</g>
		<g>
			<circle fill="#F77D48" cx="1351.544" cy="758.2" r="3.833"/>
		</g>
		<g>
			<circle fill="#F77D48" cx="1297.847" cy="758.538" r="3.834"/>
		</g>
	</g>
	<g>
		<g>
			<path fill="#15156D" d="M1449.933,764.38c-7.905,0-16.748-1.364-25.574-5.42l0.389-0.845c26.432,12.149,53.039-0.21,53.304-0.335
				l0.399,0.839C1478.27,758.705,1466.053,764.38,1449.933,764.38z"/>
		</g>
		<g>
			<circle fill="#F77D48" cx="1478.251" cy="758.2" r="3.833"/>
		</g>
		<g>
			<circle fill="#F77D48" cx="1424.552" cy="758.538" r="3.834"/>
		</g>
	</g>
	<g opacity="0.3">
		<path fill="#9DB0F4" d="M1616.835,623.088v131.278l-46.933-6.088c0,0-4.188-27.673,15.752-36.457
			C1604.199,703.658,1591.724,632.455,1616.835,623.088z"/>
	</g>
	<g>
		<circle fill="#F77D48" cx="1599.15" cy="666.824" r="3.833"/>
	</g>
	<g>
		<circle fill="#F77D48" cx="1121.047" cy="627.072" r="3.834"/>
	</g>
</g>
<g opacity="0.1">
	<rect x="1659.477" y="490.485" fill="#DDE7FE" width="247.556" height="281.097"/>
</g>
<g>
	<g>
		<g>
			<rect x="1681.021" y="507.406" fill="#9DB0F4" width="120.836" height="3.449"/>
		</g>
		<g>
			<rect x="1681.021" y="515.987" fill="#9DB0F4" width="93.495" height="3.45"/>
		</g>
	</g>
	<g>
		<rect x="1865.497" y="509.408" fill="#9DB0F4" width="6.544" height="6.545"/>
	</g>
	<g>
		<g>
			<rect x="1681.021" y="545.537" fill="#9DB0F4" width="120.836" height="3.449"/>
		</g>
		<g>
			<rect x="1681.021" y="554.118" fill="#9DB0F4" width="93.495" height="3.449"/>
		</g>
	</g>
	<g>
		<rect x="1865.497" y="547.539" fill="#9DB0F4" width="6.544" height="6.544"/>
	</g>
	<g>
		<g>
			<rect x="1681.021" y="583.668" fill="#9DB0F4" width="120.836" height="3.449"/>
		</g>
		<g>
			<rect x="1681.021" y="592.249" fill="#9DB0F4" width="93.495" height="3.449"/>
		</g>
	</g>
	<g>
		<rect x="1865.497" y="585.67" fill="#9DB0F4" width="6.544" height="6.544"/>
	</g>
	<g>
		<g>
			<rect x="1681.021" y="621.798" fill="#9DB0F4" width="120.836" height="3.45"/>
		</g>
		<g>
			<rect x="1681.021" y="630.38" fill="#9DB0F4" width="93.495" height="3.45"/>
		</g>
	</g>
	<g>
		<rect x="1865.497" y="623.801" fill="#9DB0F4" width="6.544" height="6.543"/>
	</g>
	<g>
		<g>
			<rect x="1681.021" y="659.93" fill="#9DB0F4" width="120.836" height="3.449"/>
		</g>
		<g>
			<rect x="1681.021" y="668.511" fill="#9DB0F4" width="93.495" height="3.448"/>
		</g>
	</g>
	<g>
		<rect x="1865.497" y="661.931" fill="#9DB0F4" width="6.544" height="6.545"/>
	</g>
	<g>
		<rect x="1865.497" y="696.512" fill="#9DB0F4" width="6.544" height="6.544"/>
	</g>
	<g>
		<g>
			<rect x="1681.021" y="698.059" fill="#9DB0F4" width="120.836" height="3.45"/>
		</g>
		<g>
			<rect x="1681.021" y="706.641" fill="#9DB0F4" width="93.495" height="3.45"/>
		</g>
	</g>
	<g>
		<g>
			<rect x="1681.021" y="736.19" fill="#9DB0F4" width="120.836" height="3.449"/>
		</g>
		<g>
			<rect x="1681.021" y="744.771" fill="#9DB0F4" width="93.495" height="3.449"/>
		</g>
	</g>
	<g>
		<rect x="1865.497" y="738.192" fill="#9DB0F4" width="6.544" height="6.544"/>
	</g>
</g>
<g>
	<g>
		<g>
			<path fill="#EA9963" d="M1764.231,1332.643c0,0-17.275,42.695-11.187,47.156c6.089,4.46,26.99-13.676,32.534-32.818
				C1791.122,1327.839,1764.231,1332.643,1764.231,1332.643z"/>
		</g>
		<g>
			<path fill="#FFB27D" d="M2117.307,1620.704c-76.45-0.009-156.256-0.009-231.692-0.028c-2.906-7.017-6.002-14.387-9.224-21.889
				c-20.924-48.73-47.172-103.588-61.777-110.116c-26.879-12.015-43.063-1.501-76.508-40.539
				c-33.446-39.037-54.723-52.313-41.58-61.327c13.143-9.005,56.521,24.852,68.555,23.39c9.664-1.176,14.691-24.595,13.898-49.323
				c-0.201-6.471-0.813-13.018-1.845-19.289v-0.009c-0.507-3.165-1.139-6.252-1.864-9.215c-1.147-4.636-2.563-8.976-4.253-12.838
				c-3.289-7.503-2.992-12.646-0.488-16.087c7.504-10.332,34.918-5.354,45.27-2.896c4.617,1.099,18.907-7.562,28.915-2.629
				c15.532,7.646,24.575-1.177,34.89,5.458c7.292,4.693,22.31,6.892,27.48,13.658c9.846,12.876,12.283,40.137,21.88,65.325
				c8.88,23.313,11.968,47.773,42.431,89.058c13.573,18.391,55.593,61.069,98.024,102.755
				C2085.868,1590.317,2102.375,1606.328,2117.307,1620.704z"/>
		</g>
		<g>
			<path fill="#FFB27D" d="M1770.341,1303.366c0,0-63.78,52.217-55.496,59.227c8.285,7.01,29.313,0.121,63.725-21.925
				C1812.98,1318.623,1770.341,1303.366,1770.341,1303.366z"/>
		</g>
	</g>
	<g>
		<path fill="#2B478B" d="M2136.424,1620.704h-19.117c-76.45-0.009-156.256-0.009-231.692-0.028h-22.539l-2.619-5.42
			c0,0,5.314-7.188,15.935-16.469c27.873-24.375,92.27-63.222,193.027-24.624c4.482,1.721,9.033,3.585,13.659,5.621
			L2136.424,1620.704z"/>
	</g>
</g>
<g>
	<g>
		<g>
			<path fill="#EA9963" d="M1094.025,1359.31c0,0,11.068,44.708,4.41,48.265c-6.658,3.555-24.786-17.354-27.57-37.087
				C1068.082,1350.754,1094.025,1359.31,1094.025,1359.31z"/>
		</g>
		<g>
			<path fill="#FFB27D" d="M1103.574,1477.334c-38.627,33.914-53.165,21.23-81.469,29.317
				c-15.379,4.396-49.121,54.999-76.718,100.288c-2.36,3.872-4.673,7.705-6.929,11.471c-91.123-0.325-182.428-0.65-266.554-0.956
				c22.798-16.269,54.38-38.989,85.847-62.16c47.898-35.271,95.548-71.594,111.588-87.892c35.988-36.562,42.498-60.334,54.59-82.165
				c12.885-23.267,12.503-50.651,30.291-50.375c8.766,0.134,16.498-11.308,24.585-15.017c11.144-5.104,21.793,6.252,38.253,0.88
				c10.61-3.461,25.148,5.907,29.871,5.467c9.09-0.831,31.085-4.195,41.045,0.938c5.534,2.839,7.35,8.287,1.195,18.238
				c-2.219,3.584-4.234,7.685-6.022,12.11c-1.014,2.514-1.96,5.123-2.829,7.818c-2.055,6.366-3.699,13.144-4.885,19.873
				c-4.282,24.365-2.601,48.262,6.797,50.795c11.699,3.154,60.133-29.346,71.871-18.572
				C1165.84,1428.164,1142.201,1443.42,1103.574,1477.334z"/>
		</g>
		<g>
			<path fill="#FFB27D" d="M1086.951,1326.824c0,0,96.324,28.695,91.316,38.323c-5.007,9.626-55.416,7.979-95.617,0.628
				C1042.45,1358.424,1086.951,1326.824,1086.951,1326.824z"/>
		</g>
	</g>
	<g>
		<path fill="#2B478B" d="M954.354,1618.468c-5.296-0.019-10.601-0.038-15.896-0.058c-91.123-0.325-182.428-0.65-266.554-0.956
			c-10.887-0.038-21.649-0.076-32.279-0.114l103.826-58.422c4.865-1.357,9.625-2.563,14.3-3.624
			c105.231-23.991,163.5,23.581,187.636,51.646C949.221,1611.395,952.194,1615.361,954.354,1618.468z"/>
	</g>
</g>
<g>
	<g>
		<path fill="#2B478B" d="M1447.703,1546.484c0,0.619,0.037,1.236,0.114,1.835c0.233,1.926,0.829,3.737,1.714,5.368
			c0.692,1.272,1.565,2.432,2.582,3.446c2.729,2.726,6.489,4.41,10.65,4.41h211.813c8.316,0,15.063-6.743,15.063-15.06
			c0-4.161-1.684-7.926-4.412-10.651c-2.727-2.729-6.491-4.413-10.651-4.413h-211.813
			C1454.446,1531.42,1447.703,1538.163,1447.703,1546.484z"/>
	</g>
	<g>
		<path fill="#2B478B" d="M1463.859,1528.695h72.623c1.271,0,2.312-1.041,2.312-2.313l0,0c0-1.271-1.04-2.312-2.312-2.312h-72.623
			c-1.271,0-2.312,1.041-2.312,2.312l0,0C1461.548,1527.654,1462.588,1528.695,1463.859,1528.695z"/>
	</g>
	<g>
		<rect x="1467.871" y="1528.695" fill="#233862" width="7.872" height="2.726"/>
	</g>
	<g>
		<path fill="#233862" d="M1449.531,1553.688c0.692,1.272,1.565,2.432,2.582,3.446c2.729,2.726,6.489,4.41,10.65,4.41h44.866v-7.856
			L1449.531,1553.688L1449.531,1553.688z"/>
	</g>
	<g>
		<path fill="#F99746" d="M1717.678,1542.07v8.823c0,0.967-0.13,1.905-0.371,2.794c-1.225,4.528-5.36,7.856-10.275,7.856h-220.641
			c-4.916,0-9.052-3.328-10.275-7.856c-0.241-0.889-0.371-1.827-0.371-2.794v-8.823c0-5.883,4.764-10.65,10.646-10.65h220.641
			C1712.913,1531.42,1717.678,1536.188,1717.678,1542.07z"/>
	</g>
	<g>
		<path fill="#EF873A" d="M1717.307,1553.688c-1.225,4.528-5.36,7.856-10.275,7.856h-220.641c-4.916,0-9.052-3.328-10.275-7.856
			H1717.307z"/>
	</g>
	<g>
		<g>
			<path fill="#8C9DF4" d="M1695.764,1546.537c0,4.679,1.701,8.859,4.381,11.629c0.062,0.062,0.119,0.123,0.18,0.184
				c2.072,2.064,4.699,3.3,7.559,3.3c4.467,0,15.538-6.738,22.398-11.213c3.418-2.231,5.793-3.899,5.793-3.899
				s-2.375-1.668-5.793-3.9c-6.86-4.479-17.932-11.217-22.398-11.217c-1.293,0-2.537,0.253-3.708,0.718
				c-1.97,0.791-3.724,2.194-5.106,4.03c-1.526,2.015-2.611,4.552-3.068,7.371c-0.003,0.032-0.012,0.064-0.012,0.098
				C1695.841,1544.57,1695.764,1545.542,1695.764,1546.537z"/>
		</g>
		<g>
			<path fill="#6980E2" d="M1695.764,1546.537c0,4.679,1.701,8.859,4.381,11.629l33.959-11.682l-38.115-2.848
				C1695.841,1544.57,1695.764,1545.542,1695.764,1546.537z"/>
		</g>
		<g>
			<path fill="#9FB1FF" d="M1699.068,1536.168l33.877,9.252l-28.771-13.282C1702.205,1532.929,1700.451,1534.332,1699.068,1536.168z
				"/>
		</g>
		<g>
			<path fill="#182D4C" d="M1728.071,1546.537c0,1.799,0.921,3.332,2.21,3.899c3.418-2.231,5.793-3.899,5.793-3.899
				s-2.375-1.668-5.793-3.9C1728.992,1543.2,1728.071,1544.734,1728.071,1546.537z"/>
		</g>
	</g>
</g>
<g>
	<g>
		<path fill="#ED7D2B" d="M386.53,1506.682c8.856,0.019,18.095-1.003,27.522-3.152c35.721-8.143,73.855-32.389,101.846-77.089
			c0,0-5.856-30.024-22.702-53.536l-0.013,0.004c-11.685-16.307-31.869-35.663-55.955-35.788
			c-15.52-0.077-26.499,5.566-35.08,12.912c-14.604,12.468-22.294,29.844-33.609,32.354c-11.156,2.475-23.229,8.428-33.421,16.925
			c-1.669,1.386-3.29,2.838-4.837,4.369l-0.005,0.009c-0.651,0.628-1.281,1.259-1.906,1.915c-0.019,0.011-0.029,0.027-0.039,0.043
			c-13.712,14.378-21.789,33.938-14.945,55.507c1.585,4.999,4.044,10.193,7.581,15.533
			C333.54,1495.741,357.978,1506.631,386.53,1506.682z"/>
	</g>
	<g>
		<path fill="#FFB583" d="M425.648,1349.626c0,0,20.887-7.304,30.749,5.333c9.861,12.636-3.43,20.463-14.568,18.447
			C430.689,1371.393,415.208,1356.531,425.648,1349.626z"/>
	</g>
	<g>
		<path fill="#EA6C2D" d="M313.383,1461.148c1.585,5.002,4.55,9.901,7.583,15.541c21.424,39.835,51.4,56.561,74.181,62.025
			c25.182,6.041,72.327-4.165,91.074-16.276c30.775-19.882,40.159-55.288,29.672-95.999c0,0-5.856-30.021-22.699-53.534l-0.01,0.003
			c0,0-13.397,68.867-91.895,91.609C365.633,1474.845,335.578,1469.768,313.383,1461.148z"/>
	</g>
	<g>
		<g>
			<path fill="#A8D29F" d="M343.801,1362.495c0.397-12.528,13.857-16.854,24.837-24.847c10.989-7.994,24.018-28.558,24.018-28.558
				s-17.536,0.672-38.44,6.785C333.311,1321.988,343.801,1362.495,343.801,1362.495z"/>
		</g>
		<g>
			<path fill="#82B378" d="M343.801,1362.495c-1.548-13.001,4.522-31.338,12.59-37.02c8.069-5.681,36.265-16.385,36.265-16.385
				s-17.536,0.672-38.44,6.785C333.311,1321.988,343.801,1362.495,343.801,1362.495z"/>
		</g>
	</g>
	<g>
		<path fill="#EA6C2D" d="M368.538,1382.386c-11.156,2.475-23.229,8.428-33.421,16.925c18.382-13.776,47.739-9.088,49.476-17.666
			c1.854-9.205,16.973-30.792,17.555-31.612C387.544,1362.5,379.853,1379.876,368.538,1382.386z"/>
	</g>
	<g>
		<path fill="#95C38B" d="M328.369,1405.604c0.527-0.469,1.158-1.1,1.906-1.915C329.623,1404.316,328.993,1404.947,328.369,1405.604
			z"/>
	</g>
	<g>
		<g>
			<path fill="#82B378" d="M383.313,1382.632L383.313,1382.632c-9.125-14.022-27.062-21.065-40.502-24.503
				c-10.696-2.736-26.193-4.778-33.616-5.66c-1.568-0.187-2.559,1.63-1.563,2.855l2.64,3.244c2.645,3.252,6.571,5.191,10.76,5.296
				c12.877,0.32,41.795,2.915,56.415,19.421C379.09,1385.142,384.953,1385.133,383.313,1382.632z"/>
		</g>
	</g>
</g>
<g>
	<g>
		<g>
			
				<rect x="553.462" y="1110.992" transform="matrix(-0.9873 0.1586 -0.1586 -0.9873 1305.1312 2295.0876)" fill="#B5453C" width="15.039" height="177.264"/>
		</g>
		<g>
			<polygon fill="#EFCBAB" points="542.029,1081.329 539.553,1113.336 554.402,1110.951 			"/>
		</g>
	</g>
	<g>
		<g>
			
				<rect x="684.254" y="1125.605" transform="matrix(-0.9832 -0.1826 0.1826 -0.9832 1150.2004 2534.387)" fill="#B5453C" width="15.04" height="177.274"/>
		</g>
		<g>
			<polygon fill="#EFCBAB" points="713.599,1096.419 700.503,1125.729 715.291,1128.477 			"/>
		</g>
	</g>
	<g>
		<g>
			
				<rect x="665.41" y="1074.543" transform="matrix(-0.9832 -0.1827 0.1827 -0.9832 1122.0266 2429.7258)" fill="#B5453C" width="15.039" height="177.276"/>
		</g>
		<g>
			<polygon fill="#EFCBAB" points="694.85,1045.3 681.754,1074.609 696.542,1077.356 			"/>
		</g>
	</g>
	<g>
		<g>
			<rect x="595.231" y="1184.847" fill="#232323" width="118.468" height="170.733"/>
		</g>
		<g>
			<rect x="535.997" y="1184.847" fill="#4C4C4C" width="118.468" height="170.733"/>
		</g>
	</g>
</g>
<g>
	
		<rect x="1744.058" y="1086.109" transform="matrix(-0.9824 -0.1868 0.1868 -0.9824 3384.4463 2620.1831)" fill="#A8D29F" width="143.228" height="129.052"/>
</g>
<g>
	
		<rect x="1744.066" y="1097.654" transform="matrix(-0.9824 -0.1868 0.1868 -0.9824 3392.6238 2533.582)" fill="#82B378" width="143.229" height="18.59"/>
</g>
<g>
	<g>
		
			<rect x="824.503" y="1069.053" transform="matrix(-0.9725 0.2328 -0.2328 -0.9725 2031.5115 2027.3879)" fill="#8C9DF4" width="143.226" height="129.05"/>
	</g>
	<g>
		
			<rect x="812.796" y="1070.423" transform="matrix(-0.9725 0.2328 -0.2328 -0.9725 1997.0187 1933.5278)" fill="#6980E2" width="143.225" height="28.378"/>
	</g>
</g>
<g>
	<g>
		
			<rect x="1844.119" y="988.085" transform="matrix(-0.985 0.1725 -0.1725 -0.985 3984.3237 1758.9761)" fill="#699DEE" width="143.227" height="129.052"/>
	</g>
	<g>
		
			<rect x="1835.438" y="988.834" transform="matrix(-0.985 0.1725 -0.1725 -0.985 3958.5403 1662.0419)" fill="#548EE2" width="143.229" height="28.38"/>
	</g>
</g>
</svg>
